<?xml version="1.0"?>
<svg xmlns="http://www.w3.org/2000/svg" width="129" height="25" viewBox="0 0 129 25" fill="none">
<path d="M0.88501 0.677246H10.2729C12.0611 0.677246 13.4023 1.12429 14.3957 1.86936C15.4885 2.76345 16.0845 4.05491 16.0845 5.64441C16.0845 7.48225 15.3394 8.6247 13.8493 9.32011V9.41945C15.8362 10.0652 16.9786 11.8534 16.9786 13.9892C16.9786 16.0258 16.1839 17.6153 14.8924 18.6087C13.7996 19.4034 12.4088 19.7511 10.5213 19.7511H0.88501V0.677246ZM9.32918 8.12799C10.3226 8.12799 11.0677 7.5816 11.0677 6.43915C11.0677 5.34638 10.3226 4.79999 9.27951 4.79999H6.05086V8.07831H9.32918V8.12799ZM9.77622 15.5291C10.9187 15.5291 11.7631 14.8337 11.7631 13.5919C11.7631 12.2507 10.869 11.6547 9.77622 11.6547H6.10053V15.5787H9.77622V15.5291Z" fill="white"/>
<path d="M17.8236 0.677246H22.7411V19.8008H17.8236V0.677246Z" fill="white"/>
<path d="M23.7336 12.9953C23.7336 8.67392 26.5153 5.79297 30.8367 5.79297C35.1581 5.79297 37.89 8.72359 37.89 12.9953C37.89 17.3168 35.1581 20.1977 30.8367 20.1977C26.5153 20.1977 23.7336 17.3168 23.7336 12.9953ZM32.9726 12.9953C32.9726 10.6111 32.2275 9.12097 30.7373 9.12097C29.2472 9.12097 28.5518 10.6111 28.5518 12.9953C28.5518 15.3796 29.2472 16.9194 30.7373 16.9194C32.2275 16.8697 32.9726 15.3796 32.9726 12.9953Z" fill="white"/>
<path d="M38.4369 12.9953C38.4369 8.67392 41.2185 5.79297 45.5399 5.79297C49.8614 5.79297 52.5436 8.67392 52.5436 12.9953C52.5436 17.3168 49.8117 20.1977 45.4903 20.1977C41.2185 20.1977 38.4369 17.3168 38.4369 12.9953ZM47.6758 12.9953C47.6758 10.6111 46.9307 9.12097 45.4406 9.12097C43.9504 9.12097 43.255 10.6111 43.255 12.9953C43.255 15.3796 43.9504 16.9194 45.4406 16.9194C46.9307 16.8697 47.6758 15.3796 47.6758 12.9953Z" fill="white"/>
<path d="M53.5375 6.14017H58.1073V8.17671H58.2066C59.1007 6.58721 60.3425 5.7428 62.3293 5.7428C64.0679 5.7428 65.3593 6.58722 66.0051 8.07736H66.1044C67.1972 6.28919 68.6376 5.7428 70.3265 5.7428C73.5055 5.7428 74.8466 8.07736 74.8466 11.2067V19.7502H70.0781V12.0511C70.0781 10.6603 69.6311 9.7662 68.439 9.7662C67.2468 9.7662 66.6508 10.859 66.6508 12.3491V19.7502H61.8823V12.0511C61.8823 10.6603 61.4353 9.7662 60.2431 9.7662C59.051 9.7662 58.455 10.859 58.455 12.3491V19.7502H53.5375V6.14017Z" fill="white"/>
<path d="M80.8565 17.963H80.8068V19.7511H76.2371V0.677246H81.0055V7.53193H81.1049C81.999 6.33981 83.2407 5.69408 84.9792 5.69408C88.4066 5.69408 90.3935 8.77372 90.3935 12.8965C90.3935 17.5159 88.2576 20.1982 84.6812 20.1982C83.1911 20.1982 81.6513 19.5028 80.8565 17.963ZM85.476 12.8468C85.476 10.6612 84.6812 9.22076 83.2407 9.22076C81.7506 9.22076 80.8565 10.6612 80.8565 12.8468C80.8565 15.0323 81.8003 16.4728 83.2407 16.4728C84.6812 16.4728 85.476 15.082 85.476 12.8468Z" fill="white"/>
<path d="M90.9403 12.9452C90.9403 8.67342 93.7716 5.7428 97.8447 5.7428C99.8812 5.7428 101.421 6.38853 102.613 7.53097C104.203 9.07079 104.898 11.455 104.848 14.2366H95.7088C95.9075 15.9255 96.7022 16.8196 98.1427 16.8196C98.9871 16.8196 99.7322 16.4222 100.03 15.5281H104.65C103.855 18.6574 101.421 20.1972 97.9937 20.1972C93.7716 20.1476 90.9403 17.2666 90.9403 12.9452ZM95.7088 11.5047H100.08C99.9806 9.86554 99.0865 9.02112 97.944 9.02112C96.6029 8.97145 95.8578 9.91521 95.7088 11.5047Z" fill="white"/>
<path d="M110.263 8.47573H110.362C111.355 6.58821 112.647 5.84314 114.286 5.84314C114.683 5.84314 114.932 5.89281 115.081 5.99215V10.1646H114.981C112.15 9.66785 110.511 11.009 110.511 14.0886V19.8009H105.693V6.14117H110.263V8.47573Z" fill="white"/>
<path d="M115.577 19.8018H120.197C120.395 20.3979 120.992 20.9443 122.134 20.9443C123.674 20.9443 124.22 20.0005 124.22 18.56V17.5666H124.121C123.376 18.4607 122.333 19.1064 120.843 19.1064C117.912 19.1064 115.329 16.9209 115.329 12.6491C115.329 8.72504 117.415 5.69507 120.594 5.69507C122.432 5.69507 123.525 6.44014 124.27 7.58259H124.369V6.09244H128.939V17.9143C128.939 20.0998 128.194 21.7887 127.051 22.7821C125.859 23.8252 124.171 24.2722 122.233 24.2722C118.558 24.3219 116.024 22.8318 115.577 19.8018ZM124.419 12.4504C124.419 10.7616 123.624 9.37077 122.233 9.37077C120.892 9.37077 120.048 10.5629 120.048 12.4504C120.048 14.2883 120.892 15.5797 122.233 15.5797C123.574 15.5797 124.419 14.2386 124.419 12.4504Z" fill="white"/>
</svg>
