<?xml version="1.0"?>
<svg xmlns="http://www.w3.org/2000/svg" width="101" height="19" viewBox="0 0 101 19" fill="none">
<g clip-path="url(#clip0_4764_1483)">
<path d="M21.3205 5.05479L17.1728 14.5292L15.9891 6.29532C15.8376 5.17789 17.741 4.4866 17.741 4.4866C17.5658 4.09835 16.9645 4.10782 16.9645 4.10782H15.6766C15.473 2.0813 17.3101 0.608763 19.2941 1.05857C21.2448 1.49418 21.955 3.61539 21.3205 5.05479Z" fill="#6E55DC"/>
<path d="M13.6169 17.5974L5.52983 12.2091C3.47017 10.8361 1.43418 12.2376 1.00331 13.6817C0.368842 15.8171 1.79403 17.5974 4.02888 17.5974H13.6169Z" fill="#FCCC12"/>
<path d="M14.6772 4.24038C14.9755 2.14757 13.1005 0.599279 11.074 1.05856C9.12319 1.49417 8.41296 3.61538 9.04745 5.05477L13.1952 14.5292L14.6772 4.23564V4.24038Z" fill="#EF1541"/>
<path d="M12.8637 16.0869L8.88175 7.01024C7.94897 4.90797 5.48211 4.64756 4.11848 5.87862C3.15731 6.74984 2.41393 9.11723 4.55882 10.5519L12.8637 16.0869Z" fill="#FF7112"/>
<path d="M26.3395 17.5974C28.5791 17.5974 29.9996 15.8171 29.3651 13.6817C28.9342 12.2328 26.8982 10.8313 24.8386 12.2091L16.7515 17.5974H26.3395Z" fill="#05AC3F"/>
<path d="M25.809 10.5519C27.9539 9.11723 27.2106 6.74984 26.2494 5.87862C24.8857 4.64756 22.4189 4.90797 21.4861 7.01024L17.5042 16.0869L25.809 10.5519Z" fill="#069DE0"/>
<path d="M49.4363 1.40344H53.2336L61.0508 11.877V1.40344H64.6116V17.5966H60.8138L52.9968 7.09945V17.5966H49.4363V1.40344Z" fill="white"/>
<path d="M82.7319 12.4972C82.7319 16.9006 79.204 17.5966 76.9978 17.5966H67.5847V1.40344H76.9881C79.8716 1.40344 82.1779 3.0417 82.1779 6.10988C82.1779 7.62979 81.1074 8.46786 80.2932 8.87979C81.6285 9.55212 82.7319 10.5417 82.7319 12.4972ZM71.0222 4.43848V7.50195H76.5716C77.4853 7.50195 78.4938 7.11843 78.4938 5.98204C78.4938 4.84567 77.708 4.43848 76.4438 4.43848H71.0222ZM79.0717 12.4972C79.0717 10.9442 77.779 10.5417 76.5148 10.5417H71.0222V14.4101H76.6472C77.6751 14.4101 79.0717 14.055 79.0717 12.502V12.4972Z" fill="white"/>
<path d="M100.677 14.9546C98.9011 16.4792 96.9881 18.0228 93.2051 18.0228C88.1767 17.9991 84.2795 14.1023 84.2795 9.4669C84.3034 4.69415 88.3614 0.977295 93.2523 0.977295C97.4949 0.977295 99.7818 3.69984 100.08 3.99813L97.4045 6.67332C96.8222 6.08146 95.5631 4.73677 93.2284 4.73677C90.383 4.73677 88.0676 6.86747 88.0676 9.48582C88.0676 11.768 90.0324 14.2349 93.2097 14.2349C95.7426 14.2349 96.6756 13.4063 98.2335 12.0995L100.681 14.9546H100.677Z" fill="white"/>
<path d="M47.8072 14.9546C46.0316 16.4792 44.1188 18.0228 40.3356 18.0228C35.3072 17.9991 31.4104 14.1023 31.4104 9.4669C31.4341 4.69415 35.4918 0.977295 40.383 0.977295C44.6254 0.977295 46.9123 3.69984 47.2106 3.99813L44.5354 6.67332C43.953 6.08146 42.6935 4.73677 40.3593 4.73677C37.5136 4.73677 35.1983 6.86747 35.1983 9.48582C35.1983 11.768 37.1632 14.2349 40.3403 14.2349C42.8735 14.2349 43.8063 13.4063 45.364 12.0995L47.8119 14.9546H47.8072Z" fill="white"/>
</g>
<defs>
<clipPath id="clip0_4764_1483">
<rect width="100" height="17.0455" fill="white" transform="translate(0.851807 0.977295)"/>
</clipPath>
</defs>
</svg>
