<?xml version="1.0"?>
<svg xmlns="http://www.w3.org/2000/svg" width="79" height="21" viewBox="0 0 79 21" fill="none">
<path d="M8.01491 2.36354H9.72129C10.7605 2.21346 11.8217 2.34541 12.7898 2.74505C14.0043 3.46134 14.8852 4.61451 15.2446 5.95855C15.499 6.66288 15.499 6.66288 16.1127 6.41343H16.5917V0.837491H0.53079V1.82062H1.18939C1.47559 1.81867 1.7586 1.87961 2.01763 1.99896C2.27665 2.1183 2.50511 2.29302 2.68622 2.51027C3.29991 3.47872 3.40469 4.56456 3.40469 10.2139C3.40469 16.2153 3.26998 17.6827 2.68622 18.431C2.5421 18.6234 2.35552 18.7814 2.14039 18.8932C1.92527 19.005 1.68716 19.0677 1.44385 19.0767C0.53079 19.2381 0.53079 19.2234 0.53079 19.6196C0.480297 19.7521 0.480297 19.898 0.53079 20.0304H10.6643C10.7314 19.9008 10.7663 19.7576 10.7663 19.6123C10.7663 19.4669 10.7314 19.3237 10.6643 19.1941C10.4189 19.1271 10.1687 19.0781 9.91588 19.0473C9.64237 19.0154 9.37203 18.9615 9.10759 18.8859C8.72892 18.6149 8.42894 18.2517 8.23731 17.8322C8.04567 17.4128 7.96902 16.9515 8.01491 16.4941C7.86523 15.5257 7.79039 13.7502 7.79039 12.2828V11.1236H8.38912C9.13507 11.1013 9.88058 11.1803 10.6044 11.3584C10.9512 11.5685 11.2464 11.851 11.4689 12.1858C11.6914 12.5206 11.8358 12.8995 11.8917 13.2953L12.0264 13.7502H12.9395V7.24982H12.1012L11.9665 7.88078C11.9099 8.28557 11.7571 8.67168 11.5205 9.00808C11.284 9.34448 10.9702 9.62177 10.6044 9.81768C10.2502 9.92102 9.87702 9.94608 9.51173 9.89105H7.79039V8.30631C7.79039 6.66288 7.8802 3.19993 7.94007 2.65701L8.01491 2.36354ZM78.0663 13.9996C77.3588 12.8833 76.2552 12.0628 74.9679 11.6959C73.9809 11.3935 73.0687 10.8938 72.2885 10.2285C72.113 10.0621 71.9817 9.85607 71.906 9.62843C71.8303 9.4008 71.8127 9.15847 71.8545 8.9226C71.8556 8.45992 72.044 8.01661 72.3783 7.69002C72.6049 7.45739 72.8917 7.28946 73.2081 7.20417C73.5244 7.11889 73.8585 7.11945 74.1745 7.2058C74.8289 7.38861 75.4206 7.74154 75.887 8.22718C76.3534 8.71283 76.6772 9.3131 76.8239 9.96442C77.0634 10.6247 77.0933 10.6247 77.5274 10.4486L77.7969 10.3459V6.69222L77.6023 6.60418C76.1287 6.09682 74.5655 5.88717 73.007 5.98789C71.6649 6.02123 70.3838 6.5445 69.4146 7.45525C68.9751 7.85861 68.6308 8.35128 68.4059 8.89876C68.1809 9.44625 68.0808 10.0353 68.1124 10.6247C68.1208 11.5259 68.4857 12.3886 69.1302 13.0312C69.8425 13.7179 70.7165 14.2219 71.6748 14.4985C73.9949 15.3936 74.6685 15.9659 74.6685 17.0077C74.6784 17.447 74.5357 17.8766 74.2637 18.226C73.9917 18.5753 73.6066 18.8235 73.1717 18.9299C72.649 19.0425 72.1077 19.0425 71.585 18.9299C70.9007 18.6696 70.2898 18.2528 69.8029 17.7143C69.3161 17.1758 68.9674 16.5311 68.786 15.8338L68.5914 15.3643H68.322C68.1932 15.3736 68.0668 15.4034 67.9478 15.4523H67.7981V19.6196H68.0525C69.0638 19.9494 70.1071 20.1756 71.1659 20.2946H72.6628C73.3119 20.3413 73.9644 20.2818 74.5937 20.1185C75.3925 19.974 76.1388 19.6271 76.7585 19.1122C77.3782 18.5974 77.8497 17.9326 78.1262 17.1838C78.3048 16.7656 78.3964 16.3166 78.3956 15.8632C78.4546 15.2244 78.341 14.5817 78.0663 13.9996ZM63.9662 6.41343C63.0692 6.04426 62.1028 5.86517 61.1303 5.88793C60.1578 5.91069 59.2011 6.13478 58.3232 6.54549C57.4979 6.94121 56.7665 7.50217 56.1761 8.19216C55.5857 8.88216 55.1494 9.68585 54.8954 10.5514C54.5717 11.4955 54.4345 12.4915 54.4913 13.4861C54.4806 14.0272 54.5257 14.5679 54.626 15.1001C54.8677 16.4087 55.5122 17.6135 56.4728 18.5525C57.4333 19.4916 58.6641 20.12 59.9996 20.3533C60.8693 20.4607 61.7493 20.4607 62.6191 20.3533C63.5215 20.1973 64.3853 19.8736 65.1637 19.3995C65.8075 19.0456 66.3525 18.5417 66.7503 17.9321C66.7248 17.8365 66.6798 17.7469 66.618 17.6687C66.5563 17.5906 66.4791 17.5254 66.3911 17.4773C66.2202 17.5379 66.059 17.6219 65.9121 17.7267C65.1676 18.2077 64.2884 18.4488 63.3974 18.4164C62.806 18.4556 62.2131 18.3653 61.6617 18.1521C61.1102 17.9389 60.6141 17.6082 60.2092 17.1838C59.8959 16.8986 59.6374 16.5606 59.4458 16.186C58.9807 15.2738 58.73 14.271 58.7123 13.2513V12.679H67.0048V12.3855C67.0231 12.0924 67.0231 11.7983 67.0048 11.5051C67.0018 10.469 66.7191 9.45218 66.1854 8.55788C65.6517 7.66358 64.886 6.9237 63.9662 6.41343ZM59.7901 11.4905H58.7423V10.6247C59.0866 8.40902 59.9397 7.08841 60.9875 7.08841C62.0353 7.08841 62.4843 8.39435 62.6789 10.7861V11.4611H61.7808L59.7901 11.4905ZM38.2657 5.9292C37.7485 5.90954 37.2344 6.01538 36.7689 6.23734C35.7573 6.71897 34.9401 7.52 34.4488 8.51174L34.2542 8.8639V5.9292H34.1794C33.9998 5.9292 28.4615 7.01504 28.2819 7.08841C28.1023 7.16178 28.1622 7.17645 28.1622 7.44057C28.1622 7.7047 28.1622 7.74872 28.2819 7.76339L28.8657 7.88078C29.0292 7.88471 29.1896 7.92507 29.3348 7.99879C29.4801 8.07252 29.6063 8.17768 29.7039 8.30631C30.0781 8.79054 30.1529 9.6416 30.1529 13.266C30.2269 14.8976 30.1568 16.5324 29.9434 18.1522C29.8932 18.3965 29.7668 18.6194 29.5818 18.7903C29.3968 18.9611 29.1623 19.0714 28.9106 19.106L28.4017 19.2087H28.2071V19.6196C28.1528 19.7564 28.1528 19.9083 28.2071 20.0451H36.5743V19.6196C36.6033 19.4792 36.6033 19.3345 36.5743 19.1941C36.0705 19.1748 35.5696 19.111 35.0775 19.0033C34.8095 18.8659 34.5903 18.6522 34.4487 18.3902C34.3071 18.1283 34.2497 17.8305 34.2842 17.5359C34.1644 16.6849 34.1046 14.1904 34.1345 12.2828C34.1644 10.3753 34.1345 10.2579 34.2991 10.1258C34.8 9.74935 35.4198 9.55721 36.0504 9.58291C36.6448 9.59561 37.2285 9.74115 37.7568 10.0084C37.94 10.1081 38.1365 10.1822 38.3406 10.2285C38.3406 10.2285 39.8374 6.67755 39.8374 6.51614C39.6458 6.29794 39.4018 6.13 39.1274 6.02752C38.853 5.92503 38.5568 5.89124 38.2657 5.9292ZM28.1771 12.0921C28.1249 11.0435 27.8178 10.0224 27.2814 9.11372C26.7451 8.20507 25.995 7.43522 25.0937 6.86831C24.0225 6.30183 22.8308 5.98949 21.6142 5.95636C20.3977 5.92323 19.1901 6.17024 18.0885 6.67755C16.5311 7.48266 15.3551 8.85126 14.8105 10.4927C14.2479 12.3304 14.2479 14.2896 14.8105 16.1273C15.1054 17.1317 15.6566 18.0457 16.4121 18.7832C17.353 19.6832 18.5662 20.2599 19.8698 20.4266C20.7065 20.4952 21.5477 20.4952 22.3844 20.4266C22.6923 20.3807 22.9972 20.317 23.2975 20.2359C24.5158 19.9018 25.612 19.2344 26.4575 18.3119C27.3031 17.3894 27.8633 16.2499 28.0724 15.0268C28.2218 14.0557 28.2569 13.071 28.1771 12.0921ZM21.9503 19.4288C20.4535 19.869 19.3309 18.4457 18.9567 15.4523C18.8193 13.8851 18.8193 12.3093 18.9567 10.7421C19.2561 8.33566 20.0194 7.11776 21.2019 7.11776C21.4405 7.10326 21.6791 7.14499 21.8979 7.23944C22.1166 7.3339 22.3091 7.47834 22.4593 7.66068C23.4621 8.6438 23.9561 10.5954 23.9561 13.5301C24.0806 15.191 23.8143 16.8577 23.1777 18.4017C22.8967 18.852 22.4617 19.19 21.9503 19.3555V19.4288ZM48.8932 6.22267C48.4708 6.16939 48.0432 6.16939 47.6209 6.22267C46.8101 6.22199 46.0087 6.39214 45.2709 6.72157L44.8069 6.91233V3.72817C44.8879 2.65358 44.8879 1.57459 44.8069 0.5C44.6272 0.5 38.9094 1.57117 38.8196 1.61519C38.7754 1.72352 38.7754 1.84434 38.8196 1.95268C38.8196 2.26082 38.8196 2.24615 39.4931 2.39288C39.6822 2.43446 39.8639 2.50371 40.032 2.59831C40.3242 2.86766 40.5186 3.22317 40.5858 3.61078C40.7562 4.72747 40.8114 5.85816 40.7505 6.98569V19.869L41.1546 19.9571C41.7533 20.0891 43.4447 20.3679 43.9986 20.4266C45.1045 20.5129 46.2156 20.5129 47.3215 20.4266C48.549 20.3037 49.719 19.8548 50.7055 19.1282C51.692 18.4016 52.4575 17.4249 52.9196 16.3034C53.1951 15.5835 53.386 14.8352 53.4884 14.073C53.5775 13.0405 53.5424 12.0013 53.3837 10.9769C53.2231 9.82857 52.7061 8.75645 51.9028 7.90598C51.0995 7.0555 50.0488 6.46783 48.8932 6.22267ZM44.9715 19.1794C44.9715 18.9886 44.8218 12.5616 44.8518 9.99376V7.98349L45.2858 7.88078C45.5787 7.83964 45.8761 7.83964 46.169 7.88078C46.4929 7.84849 46.8187 7.92061 47.097 8.08621C47.656 8.4644 48.1202 8.96197 48.4546 9.54146C48.7891 10.121 48.9851 10.7673 49.0279 11.4318C49.1369 12.5003 49.1369 13.5768 49.0279 14.6453C48.9383 16.1982 48.3279 17.6787 47.2916 18.8566C46.9974 19.1305 46.628 19.3141 46.2288 19.3848C45.9268 19.4363 45.6179 19.4363 45.3158 19.3848C45.0314 19.3848 45.0314 19.2968 45.0314 19.1794H44.9715Z" fill="white"/>
</svg>
