<?xml version="1.0"?>
<svg xmlns="http://www.w3.org/2000/svg" width="121" height="19" viewBox="0 0 121 19" fill="none">
<path fill-rule="evenodd" clip-rule="evenodd" d="M0.778809 0.790045H3.74818V18.2167H0.778809V0.790045ZM24.8366 11.9351L12.7737 0.52141V18.2163H15.6288V6.87923L27.6917 18.4857V0.790045H24.8366V11.9351ZM43.1882 8.50971L40.3622 7.48765C38.9059 6.97759 38.0775 6.46598 38.0775 5.18928C38.0775 3.7703 39.3915 3.0888 41.1612 3.0888C43.2165 3.0888 44.8159 3.85505 46.2714 4.96225V1.92484C44.8731 1.01708 43.0743 0.505859 41.104 0.505859C37.8777 0.505859 35.194 2.18026 35.194 5.24565C35.194 8.112 36.9641 9.3611 39.3052 10.2125L41.8462 11.121C43.4164 11.717 44.3016 12.2566 44.3016 13.6184C44.3016 15.1793 42.9024 15.8892 40.9038 15.8892C38.8488 15.8892 36.9353 15.1517 35.3363 13.8739V16.9676C36.5644 17.8194 38.5627 18.5005 40.9038 18.5005C44.4734 18.5005 47.185 16.7402 47.185 13.5617C47.185 11.0359 45.9293 9.50299 43.1882 8.50971ZM53.8745 0.790045H56.8435V18.2167H53.8745V0.790045ZM72.7407 0.790434H66.0167V18.2167H72.7407C77.9086 18.2167 81.2492 14.8108 81.2492 9.50299C81.2492 4.19599 77.9082 0.790434 72.7407 0.790434ZM72.6264 15.5778H68.9865V3.40136H72.6264C76.3084 3.40136 78.2791 5.75688 78.2791 9.50299C78.2791 13.2207 76.3088 15.5778 72.6264 15.5778ZM87.988 18.2167H98.6222V15.5778H90.8999V10.1771H97.8226V7.59417H90.8999V3.40098H98.6222V0.790045H87.988V18.2167ZM114.032 11.0359C116.802 10.6102 118.108 8.9354 118.108 6.01191C118.108 2.60634 115.767 0.790045 112.141 0.790045H105.781V18.2167H108.75V11.1494H110.863L116.966 18.2167H120.335L114.032 11.0359ZM108.751 8.67998V3.34422H112.084C114.053 3.34422 115.167 4.39426 115.167 6.01191C115.167 7.62994 114.053 8.67998 112.084 8.67998H108.751Z" fill="white"/>
</svg>
