<?xml version="1.0"?>
<svg xmlns="http://www.w3.org/2000/svg" width="280" height="150" viewBox="0 0 280 150" fill="none">
<g clip-path="url(#clip0_4707_263)">
<path d="M139.534 35.3259H81.0688V54.6617H100.423V94.5418H120.18V54.6617H139.534V35.3259ZM158.889 35.3259H198V54.6617H158.889V35.3259ZM158.889 74.1784V54.6617H139.534V94.5418H198V74.207L158.889 74.1784Z" fill="#F6F7F8"/>
<path d="M89.1331 102.598V114.683H85.9074V102.598H81.0688V100.181H93.1652V102.598H89.1331ZM102.225 109.849H95.5171C95.6236 111.461 96.7562 112.199 97.8247 112.199C98.6368 112.199 99.3198 112.019 99.7476 111.527L101.841 113.336C100.944 114.488 99.3198 115.18 97.8247 115.18C94.5986 115.18 92.5475 112.912 92.5475 109.368C92.5475 105.932 94.7051 103.527 97.5473 103.527C100.539 103.527 102.268 105.939 102.268 109.141C102.268 109.57 102.247 109.849 102.225 109.849ZM97.3977 106.231C96.3292 106.231 95.6671 106.627 95.5603 108.238H99.4061C99.3206 106.627 98.7222 106.231 97.3977 106.231ZM109.297 115.212C106.37 115.212 104.042 112.821 104.042 109.384C104.042 105.948 106.307 103.536 109.425 103.536C111.562 103.536 112.929 104.582 113.87 106.012L111.926 107.976C111.263 107.036 110.559 106.374 109.362 106.374C107.952 106.374 107.033 107.548 107.033 109.384C107.033 111.177 107.952 112.373 109.362 112.373C110.515 112.373 111.242 111.861 112.012 110.943L113.891 112.714C112.801 114.166 111.519 115.212 109.297 115.212ZM122.6 114.683V108.915C122.6 106.909 122.215 106.311 120.997 106.311C119.779 106.311 119.374 106.909 119.374 108.852V114.684H116.148V100.891L119.374 99.4167V104.519C119.374 103.986 120.666 103.538 121.841 103.538C124.704 103.538 125.825 105.501 125.825 108.66V114.684L122.6 114.683Z" fill="#F6F7F8"/>
<path d="M137.605 104.39C137.071 103.366 136.217 102.767 134.871 102.767C132.628 102.767 131.346 104.732 131.346 107.506C131.346 110.195 132.65 112.244 134.893 112.244C136.24 112.244 137.03 111.668 137.82 110.345L140.341 111.839C139.316 113.952 137.52 115.211 134.808 115.211C130.898 115.211 128.27 112.222 128.27 107.505C128.27 102.959 131.004 99.7998 134.914 99.7998C137.735 99.7998 139.444 101.166 140.383 103.107L137.605 104.39ZM148.587 107.207C148.117 106.78 147.641 106.481 146.979 106.481C145.827 106.481 145.18 106.973 145.18 108.914V114.683H141.954V103.404H145.18V104.518C145.986 103.984 146.339 103.536 147.387 103.536C148.347 103.536 149.022 103.92 149.407 104.326L148.587 107.207ZM158.083 114.583V114.23C157.276 114.763 156.79 115.212 155.615 115.212C152.752 115.212 151.631 113.247 151.631 110.089V103.404H154.05V109.832C154.05 111.839 154.838 112.437 156.056 112.437C157.273 112.437 158.083 111.838 158.083 109.896V103.404H161.308V114.683H157.956L158.083 114.583ZM169.776 114.683V108.915C169.776 106.909 169.593 106.311 168.375 106.311C167.158 106.311 166.953 106.909 166.953 108.852V114.684H163.728V103.405H166.953V104.519C166.953 103.986 168.044 103.538 169.219 103.538C172.082 103.538 173.001 105.501 173.001 108.66V114.684L169.776 114.683ZM180.804 115.212C177.877 115.212 175.549 112.821 175.549 109.384C175.549 105.948 177.814 103.536 180.933 103.536C183.07 103.536 184.437 104.582 185.377 106.012L183.434 107.976C182.771 107.036 182.067 106.374 180.871 106.374C179.46 106.374 178.541 107.548 178.541 109.384C178.541 111.177 179.46 112.373 180.871 112.373C182.023 112.373 182.751 111.861 183.52 110.943L185.4 112.714C184.307 114.166 183.026 115.212 180.804 115.212ZM193.968 114.977V108.915C193.968 106.909 193.584 106.311 192.366 106.311C191.15 106.311 190.743 106.909 190.743 108.852V114.684H187.517V100.891L190.743 99.4167V104.519C190.743 103.986 192.035 103.538 193.21 103.538C196.074 103.538 197.194 105.501 197.194 108.66V114.684H194.044L193.968 114.977Z" fill="#F6F7F8"/>
</g>
<defs>
<clipPath id="clip0_4707_263">
<rect width="116.931" height="79.9052" fill="white" transform="translate(81.0686 35.3162)"/>
</clipPath>
</defs>
</svg>
