<?xml version="1.0"?>
<svg xmlns="http://www.w3.org/2000/svg" width="280" height="150" viewBox="0 0 280 150" fill="none">
<path d="M238.518 88.7523V77.2605H214.319L238.518 53.0293L230.309 44.8208L206.111 69.0521V44.8208H194.619V88.7523H238.518Z" fill="white"/>
<path d="M57.1113 44C67.3882 44 73.1341 50.1727 73.1341 59.202V60.4497H62.8572V59.6288C62.8572 55.0978 60.7886 52.6353 56.6844 52.6353C52.5802 52.6353 52.1534 53.8829 52.1534 56.3455C52.1534 58.808 53.4011 59.6288 55.4367 60.4497L62.0035 62.5182C69.3911 64.9807 73.1013 68.2641 73.1013 75.6517C73.1013 83.0393 66.5345 89.606 57.5053 89.606C48.476 89.606 41.4824 83.8601 41.4824 74.404V73.1563H51.3325V73.9772C51.3325 78.5082 53.7951 80.9708 57.8993 80.9708C62.0035 80.9708 62.8243 79.7231 62.8243 76.8665C62.8243 74.01 61.5766 73.5832 59.1141 72.7623L52.1205 70.6938C46.3746 68.6253 41.8436 65.3419 41.8436 57.5603C41.8436 49.7787 47.6552 44 57.1113 44Z" fill="white"/>
<path d="M96.1177 65.7687L108.824 88.3255H97.3326L89.945 75.192L82.9842 88.7523H71.4924L84.1991 66.1627L72.2804 44.8208H84.1991L90.7658 57.1335L97.3326 44.8208H108.43L96.1177 65.7687Z" fill="white"/>
<path d="M123.206 44C133.483 44 139.228 50.1727 139.228 59.202V60.4497H129.378V59.6288C129.378 55.0978 127.31 52.6353 123.206 52.6353C119.101 52.6353 118.675 54.2769 118.675 56.7395C118.675 59.202 119.922 60.0228 121.958 60.8437L128.525 62.9122C135.912 65.3747 139.622 68.6581 139.622 76.0457C139.622 83.4333 133.056 90 124.026 90C114.997 90 107.61 84.2541 107.61 74.798V73.1563H117.46V73.9772C117.46 78.5082 119.922 80.9707 124.026 80.9707C128.131 80.9707 128.952 79.7231 128.952 76.8665C128.952 74.01 127.704 73.5832 125.241 72.7623L118.675 70.6938C112.502 68.6253 108.398 65.3419 108.398 57.5603C108.398 49.7787 113.75 44 123.206 44Z" fill="white"/>
<path d="M169.994 44.8208L174.098 73.1563H174.525L179.056 44.8208H189.267L181.058 88.3255H168.746L164.642 60.4168H164.215L160.111 88.3255H148.225L140.016 44.8208H151.114L155.645 73.1563H156.072L160.176 44.8208H169.994Z" fill="white"/>
<path d="M185.59 88.3255C184.67 88.3255 183.948 87.5703 183.948 86.6838C183.948 85.7973 184.703 85.0421 185.59 85.0421C186.476 85.0421 187.231 85.7973 187.231 86.6838C187.231 87.5703 186.476 88.3255 185.59 88.3255ZM185.59 85.4689C184.9 85.4689 184.342 85.9943 184.342 86.7166C184.342 87.439 184.867 87.9643 185.59 87.9643C186.312 87.9643 186.837 87.439 186.837 86.7166C186.837 85.9943 186.279 85.4689 185.59 85.4689ZM185.984 87.5046H185.163V85.863H185.984V87.5046Z" fill="white"/>
<path d="M49.838 115V102.472H52.664V115H49.838ZM45.86 104.758V102.292H56.642V104.758H45.86ZM63.7461 115V110.014C63.7461 109.558 63.6021 109.192 63.3141 108.916C63.0381 108.628 62.6841 108.484 62.2521 108.484C61.9521 108.484 61.6881 108.55 61.4601 108.682C61.2321 108.802 61.0521 108.982 60.9201 109.222C60.7881 109.45 60.7221 109.714 60.7221 110.014L59.6601 109.492C59.6601 108.808 59.8041 108.208 60.0921 107.692C60.3801 107.176 60.7821 106.78 61.2981 106.504C61.8141 106.216 62.4081 106.072 63.0801 106.072C63.7641 106.072 64.3641 106.216 64.8801 106.504C65.3961 106.78 65.7921 107.17 66.0681 107.674C66.3561 108.166 66.5001 108.742 66.5001 109.402V115H63.7461ZM57.9681 115V101.932H60.7221V115H57.9681ZM72.5889 115.198C71.6409 115.198 70.7949 115.006 70.0509 114.622C69.3189 114.226 68.7429 113.68 68.3229 112.984C67.9029 112.288 67.6929 111.502 67.6929 110.626C67.6929 109.75 67.8969 108.97 68.3049 108.286C68.7249 107.59 69.2889 107.044 69.9969 106.648C70.7049 106.252 71.5029 106.054 72.3909 106.054C73.2549 106.054 74.0169 106.24 74.6769 106.612C75.3369 106.984 75.8529 107.5 76.2249 108.16C76.6089 108.82 76.8009 109.576 76.8009 110.428C76.8009 110.584 76.7889 110.752 76.7649 110.932C76.7529 111.1 76.7229 111.298 76.6749 111.526L69.1329 111.544V109.654L75.5049 109.636L74.3169 110.428C74.3049 109.924 74.2269 109.51 74.0829 109.186C73.9389 108.85 73.7229 108.598 73.4349 108.43C73.1589 108.25 72.8169 108.16 72.4089 108.16C71.9769 108.16 71.5989 108.262 71.2749 108.466C70.9629 108.658 70.7169 108.934 70.5369 109.294C70.3689 109.654 70.2849 110.092 70.2849 110.608C70.2849 111.124 70.3749 111.568 70.5549 111.94C70.7469 112.3 71.0109 112.582 71.3469 112.786C71.6949 112.978 72.1029 113.074 72.5709 113.074C73.0029 113.074 73.3929 113.002 73.7409 112.858C74.0889 112.702 74.3949 112.474 74.6589 112.174L76.1709 113.686C75.7389 114.19 75.2169 114.568 74.6049 114.82C73.9929 115.072 73.3209 115.198 72.5889 115.198ZM87.8039 115.198C86.8799 115.198 86.0099 115.03 85.1939 114.694C84.3899 114.358 83.6879 113.896 83.0879 113.308C82.4879 112.708 82.0139 112.012 81.6659 111.22C81.3299 110.416 81.1619 109.552 81.1619 108.628C81.1619 107.704 81.3359 106.846 81.6839 106.054C82.0319 105.262 82.5119 104.572 83.1239 103.984C83.7479 103.384 84.4739 102.922 85.3019 102.598C86.1299 102.262 87.0179 102.094 87.9659 102.094C89.0579 102.094 90.0479 102.292 90.9359 102.688C91.8359 103.084 92.5799 103.63 93.1679 104.326L91.2419 106.252C90.8339 105.724 90.3539 105.328 89.8019 105.064C89.2499 104.8 88.6259 104.668 87.9299 104.668C87.1859 104.668 86.5199 104.836 85.9319 105.172C85.3439 105.496 84.8819 105.958 84.5459 106.558C84.2219 107.146 84.0599 107.836 84.0599 108.628C84.0599 109.42 84.2219 110.116 84.5459 110.716C84.8699 111.316 85.3139 111.784 85.8779 112.12C86.4419 112.456 87.0899 112.624 87.8219 112.624C88.5659 112.624 89.1959 112.486 89.7119 112.21C90.2399 111.922 90.6419 111.514 90.9179 110.986C91.2059 110.446 91.3499 109.792 91.3499 109.024L93.2219 110.284L87.5519 110.194V107.8H94.2299V108.214C94.2299 109.738 93.9539 111.022 93.4019 112.066C92.8619 113.098 92.1059 113.878 91.1339 114.406C90.1739 114.934 89.0639 115.198 87.8039 115.198ZM95.6908 115V106.252H98.4448V115H95.6908ZM98.4448 110.194L97.2928 109.294C97.5208 108.274 97.9048 107.482 98.4448 106.918C98.9848 106.354 99.7348 106.072 100.695 106.072C101.115 106.072 101.481 106.138 101.793 106.27C102.117 106.39 102.399 106.582 102.639 106.846L101.001 108.916C100.881 108.784 100.731 108.682 100.551 108.61C100.371 108.538 100.167 108.502 99.9388 108.502C99.4828 108.502 99.1168 108.646 98.8408 108.934C98.5768 109.21 98.4448 109.63 98.4448 110.194ZM107.446 115.198C106.498 115.198 105.652 115.006 104.908 114.622C104.176 114.226 103.6 113.68 103.18 112.984C102.76 112.288 102.55 111.502 102.55 110.626C102.55 109.75 102.754 108.97 103.162 108.286C103.582 107.59 104.146 107.044 104.854 106.648C105.562 106.252 106.36 106.054 107.248 106.054C108.112 106.054 108.874 106.24 109.534 106.612C110.194 106.984 110.71 107.5 111.082 108.16C111.466 108.82 111.658 109.576 111.658 110.428C111.658 110.584 111.646 110.752 111.622 110.932C111.61 111.1 111.58 111.298 111.532 111.526L103.99 111.544V109.654L110.362 109.636L109.174 110.428C109.162 109.924 109.084 109.51 108.94 109.186C108.796 108.85 108.58 108.598 108.292 108.43C108.016 108.25 107.674 108.16 107.266 108.16C106.834 108.16 106.456 108.262 106.132 108.466C105.82 108.658 105.574 108.934 105.394 109.294C105.226 109.654 105.142 110.092 105.142 110.608C105.142 111.124 105.232 111.568 105.412 111.94C105.604 112.3 105.868 112.582 106.204 112.786C106.552 112.978 106.96 113.074 107.428 113.074C107.86 113.074 108.25 113.002 108.598 112.858C108.946 112.702 109.252 112.474 109.516 112.174L111.028 113.686C110.596 114.19 110.074 114.568 109.462 114.82C108.85 115.072 108.178 115.198 107.446 115.198ZM116.642 115.18C115.838 115.18 115.118 114.982 114.482 114.586C113.858 114.19 113.36 113.65 112.988 112.966C112.628 112.282 112.448 111.502 112.448 110.626C112.448 109.75 112.628 108.97 112.988 108.286C113.36 107.602 113.858 107.062 114.482 106.666C115.118 106.27 115.838 106.072 116.642 106.072C117.23 106.072 117.758 106.186 118.226 106.414C118.706 106.642 119.096 106.96 119.396 107.368C119.696 107.764 119.864 108.22 119.9 108.736V112.516C119.864 113.032 119.696 113.494 119.396 113.902C119.108 114.298 118.724 114.61 118.244 114.838C117.764 115.066 117.23 115.18 116.642 115.18ZM117.2 112.696C117.788 112.696 118.262 112.504 118.622 112.12C118.982 111.724 119.162 111.226 119.162 110.626C119.162 110.218 119.078 109.858 118.91 109.546C118.754 109.234 118.526 108.994 118.226 108.826C117.938 108.646 117.602 108.556 117.218 108.556C116.834 108.556 116.492 108.646 116.192 108.826C115.904 108.994 115.67 109.234 115.49 109.546C115.322 109.858 115.238 110.218 115.238 110.626C115.238 111.022 115.322 111.376 115.49 111.688C115.658 112 115.892 112.246 116.192 112.426C116.492 112.606 116.828 112.696 117.2 112.696ZM119.054 115V112.642L119.468 110.518L119.054 108.394V106.252H121.754V115H119.054ZM124.935 115V102.634H127.689V115H124.935ZM122.955 108.592V106.252H129.669V108.592H122.955ZM134.562 115V102.292H137.388V115H134.562ZM136.722 115V112.552H143.688V115H136.722ZM136.722 109.69V107.332H143.058V109.69H136.722ZM136.722 104.722V102.292H143.598V104.722H136.722ZM144.91 111.616V109.204H151.282V111.616H144.91ZM153.224 115V106.252H155.978V115H153.224ZM158.822 115V109.888C158.822 109.444 158.684 109.102 158.408 108.862C158.144 108.61 157.814 108.484 157.418 108.484C157.142 108.484 156.896 108.544 156.68 108.664C156.464 108.772 156.29 108.928 156.158 109.132C156.038 109.336 155.978 109.588 155.978 109.888L154.916 109.42C154.916 108.724 155.066 108.13 155.366 107.638C155.666 107.134 156.074 106.75 156.59 106.486C157.106 106.21 157.688 106.072 158.336 106.072C158.948 106.072 159.494 106.21 159.974 106.486C160.466 106.762 160.856 107.146 161.144 107.638C161.432 108.13 161.576 108.718 161.576 109.402V115H158.822ZM164.42 115V109.888C164.42 109.444 164.282 109.102 164.006 108.862C163.742 108.61 163.412 108.484 163.016 108.484C162.74 108.484 162.494 108.544 162.278 108.664C162.062 108.772 161.888 108.928 161.756 109.132C161.636 109.336 161.576 109.588 161.576 109.888L159.992 109.672C160.016 108.928 160.19 108.292 160.514 107.764C160.85 107.224 161.288 106.81 161.828 106.522C162.38 106.222 162.998 106.072 163.682 106.072C164.354 106.072 164.948 106.216 165.464 106.504C165.992 106.78 166.406 107.182 166.706 107.71C167.018 108.226 167.174 108.85 167.174 109.582V115H164.42ZM168.939 115V106.252H171.693V115H168.939ZM170.325 105.046C169.893 105.046 169.533 104.902 169.245 104.614C168.969 104.314 168.831 103.954 168.831 103.534C168.831 103.102 168.969 102.742 169.245 102.454C169.533 102.166 169.893 102.022 170.325 102.022C170.757 102.022 171.111 102.166 171.387 102.454C171.663 102.742 171.801 103.102 171.801 103.534C171.801 103.954 171.663 104.314 171.387 104.614C171.111 104.902 170.757 105.046 170.325 105.046ZM177.34 118.924C176.38 118.924 175.534 118.756 174.802 118.42C174.082 118.096 173.512 117.634 173.092 117.034L174.784 115.342C175.096 115.714 175.444 115.996 175.828 116.188C176.224 116.38 176.698 116.476 177.25 116.476C177.934 116.476 178.468 116.308 178.852 115.972C179.248 115.636 179.446 115.162 179.446 114.55V112.318L179.914 110.41L179.5 108.502V106.252H182.2V114.478C182.2 115.378 181.99 116.158 181.57 116.818C181.15 117.478 180.574 117.994 179.842 118.366C179.11 118.738 178.276 118.924 177.34 118.924ZM177.214 114.73C176.41 114.73 175.696 114.538 175.072 114.154C174.448 113.77 173.956 113.248 173.596 112.588C173.236 111.928 173.056 111.196 173.056 110.392C173.056 109.576 173.236 108.844 173.596 108.196C173.956 107.536 174.448 107.02 175.072 106.648C175.696 106.264 176.41 106.072 177.214 106.072C177.814 106.072 178.348 106.186 178.816 106.414C179.296 106.63 179.68 106.942 179.968 107.35C180.268 107.746 180.436 108.208 180.472 108.736V112.066C180.436 112.582 180.268 113.044 179.968 113.452C179.68 113.848 179.296 114.16 178.816 114.388C178.336 114.616 177.802 114.73 177.214 114.73ZM177.736 112.282C178.12 112.282 178.45 112.198 178.726 112.03C179.014 111.862 179.23 111.64 179.374 111.364C179.53 111.076 179.608 110.752 179.608 110.392C179.608 110.032 179.53 109.708 179.374 109.42C179.23 109.132 179.014 108.904 178.726 108.736C178.45 108.568 178.12 108.484 177.736 108.484C177.364 108.484 177.034 108.568 176.746 108.736C176.458 108.904 176.236 109.132 176.08 109.42C175.924 109.708 175.846 110.032 175.846 110.392C175.846 110.728 175.924 111.046 176.08 111.346C176.236 111.634 176.452 111.862 176.728 112.03C177.016 112.198 177.352 112.282 177.736 112.282ZM184.144 115V106.252H186.898V115H184.144ZM186.898 110.194L185.746 109.294C185.974 108.274 186.358 107.482 186.898 106.918C187.438 106.354 188.188 106.072 189.148 106.072C189.568 106.072 189.934 106.138 190.246 106.27C190.57 106.39 190.852 106.582 191.092 106.846L189.454 108.916C189.334 108.784 189.184 108.682 189.004 108.61C188.824 108.538 188.62 108.502 188.392 108.502C187.936 108.502 187.57 108.646 187.294 108.934C187.03 109.21 186.898 109.63 186.898 110.194ZM195.233 115.18C194.429 115.18 193.709 114.982 193.073 114.586C192.449 114.19 191.951 113.65 191.579 112.966C191.219 112.282 191.039 111.502 191.039 110.626C191.039 109.75 191.219 108.97 191.579 108.286C191.951 107.602 192.449 107.062 193.073 106.666C193.709 106.27 194.429 106.072 195.233 106.072C195.821 106.072 196.349 106.186 196.817 106.414C197.297 106.642 197.687 106.96 197.987 107.368C198.287 107.764 198.455 108.22 198.491 108.736V112.516C198.455 113.032 198.287 113.494 197.987 113.902C197.699 114.298 197.315 114.61 196.835 114.838C196.355 115.066 195.821 115.18 195.233 115.18ZM195.791 112.696C196.379 112.696 196.853 112.504 197.213 112.12C197.573 111.724 197.753 111.226 197.753 110.626C197.753 110.218 197.669 109.858 197.501 109.546C197.345 109.234 197.117 108.994 196.817 108.826C196.529 108.646 196.193 108.556 195.809 108.556C195.425 108.556 195.083 108.646 194.783 108.826C194.495 108.994 194.261 109.234 194.081 109.546C193.913 109.858 193.829 110.218 193.829 110.626C193.829 111.022 193.913 111.376 194.081 111.688C194.249 112 194.483 112.246 194.783 112.426C195.083 112.606 195.419 112.696 195.791 112.696ZM197.645 115V112.642L198.059 110.518L197.645 108.394V106.252H200.345V115H197.645ZM203.527 115V102.634H206.281V115H203.527ZM201.547 108.592V106.252H208.261V108.592H201.547ZM209.474 115V106.252H212.228V115H209.474ZM210.86 105.046C210.428 105.046 210.068 104.902 209.78 104.614C209.504 104.314 209.366 103.954 209.366 103.534C209.366 103.102 209.504 102.742 209.78 102.454C210.068 102.166 210.428 102.022 210.86 102.022C211.292 102.022 211.646 102.166 211.922 102.454C212.198 102.742 212.336 103.102 212.336 103.534C212.336 103.954 212.198 104.314 211.922 104.614C211.646 104.902 211.292 105.046 210.86 105.046ZM218.379 115.198C217.479 115.198 216.663 115 215.931 114.604C215.211 114.196 214.641 113.644 214.221 112.948C213.801 112.252 213.591 111.472 213.591 110.608C213.591 109.744 213.801 108.97 214.221 108.286C214.641 107.602 215.211 107.062 215.931 106.666C216.651 106.258 217.467 106.054 218.379 106.054C219.291 106.054 220.107 106.252 220.827 106.648C221.547 107.044 222.117 107.59 222.537 108.286C222.957 108.97 223.167 109.744 223.167 110.608C223.167 111.472 222.957 112.252 222.537 112.948C222.117 113.644 221.547 114.196 220.827 114.604C220.107 115 219.291 115.198 218.379 115.198ZM218.379 112.696C218.775 112.696 219.123 112.612 219.423 112.444C219.723 112.264 219.951 112.018 220.107 111.706C220.275 111.382 220.359 111.016 220.359 110.608C220.359 110.2 220.275 109.846 220.107 109.546C219.939 109.234 219.705 108.994 219.405 108.826C219.117 108.646 218.775 108.556 218.379 108.556C217.995 108.556 217.653 108.646 217.353 108.826C217.053 108.994 216.819 109.234 216.651 109.546C216.483 109.858 216.399 110.218 216.399 110.626C216.399 111.022 216.483 111.382 216.651 111.706C216.819 112.018 217.053 112.264 217.353 112.444C217.653 112.612 217.995 112.696 218.379 112.696ZM230.316 115V110.014C230.316 109.558 230.172 109.192 229.884 108.916C229.608 108.628 229.254 108.484 228.822 108.484C228.522 108.484 228.258 108.55 228.03 108.682C227.802 108.802 227.622 108.982 227.49 109.222C227.358 109.45 227.292 109.714 227.292 110.014L226.23 109.492C226.23 108.808 226.38 108.208 226.68 107.692C226.98 107.176 227.394 106.78 227.922 106.504C228.462 106.216 229.068 106.072 229.74 106.072C230.388 106.072 230.958 106.228 231.45 106.54C231.954 106.84 232.35 107.242 232.638 107.746C232.926 108.25 233.07 108.802 233.07 109.402V115H230.316ZM224.538 115V106.252H227.292V115H224.538Z" fill="white"/>
</svg>
