<?xml version="1.0"?>
<svg xmlns="http://www.w3.org/2000/svg" width="280" height="150" viewBox="0 0 280 150" fill="none">
<path d="M90.1846 80.0966C82.6533 80.0966 82.0551 74.3602 82.0551 72.6709C82.0551 70.6649 82.5126 66.9345 87.4044 65.1397C92.2962 63.3448 93.352 63.1337 96.836 62.0427V61.1981C96.836 59.5088 96.836 59.1921 96.4489 58.1011C95.8506 56.1655 93.9502 54.8634 91.3108 54.8634C88.8121 54.8634 86.6653 56.2711 85.6799 58.3475L84.2722 57.5028C85.1168 54.4059 88.3194 51.3089 93.8095 51.3089C97.6103 51.3089 100.25 52.3999 101.798 54.793C102.96 56.7286 103.1 59.3329 103.1 61.9723C103.1 64.3654 102.96 67.0049 102.96 69.1516C102.96 70.5594 102.819 71.9319 102.819 72.7061C102.819 74.6417 103.206 76.1902 104.754 76.1902C105.458 76.1902 105.599 75.9439 106.162 75.5919L107.007 76.6829C105.599 78.6185 103.91 80.167 101.13 80.167C98.9828 80.167 97.4343 79.076 96.8008 77.3164C95.921 78.5481 93.6335 80.0966 90.1846 80.0966ZM96.836 65.4916C93.1408 66.5826 91.8035 67.1808 90.7477 67.7439C89.0584 68.5886 88.3546 70.137 88.3546 72.143C88.3546 73.6915 88.9529 76.1902 92.5425 76.1902C93.7039 76.1902 95.3931 75.9439 96.9416 74.8881V65.4564H96.836V65.4916ZM34.6504 78.6185C34.6504 75.8383 34.6504 73.4804 34.4041 70.6297H36.0933C36.0933 72.4246 36.5508 73.7267 37.3954 74.5713C38.5568 75.8735 41.337 76.7181 43.8357 76.7181C49.0794 76.7181 51.5781 74.7121 51.5781 70.3834C51.5781 66.6882 49.3258 65.1397 46.2288 62.9577L45.7713 62.5706L42.428 60.3183C37.7826 57.2213 35.3895 54.8282 35.3895 49.9364C35.3895 47.5433 36.3397 39.6601 47.9181 39.6601C50.9095 39.6601 54.7103 40.0472 56.9978 40.364C56.9978 40.7511 56.857 42.5107 56.857 44.0592C56.857 45.854 56.857 46.3115 56.9978 48.4583H55.5901C55.5901 46.5227 54.9918 45.3613 54.1824 44.5167C53.0914 43.4257 50.6279 42.8275 47.9885 42.8275C41.7945 42.8275 41.0907 45.9244 41.0907 48.3175C41.0907 51.5553 42.7799 52.7166 46.44 55.1097L50.6279 57.89C54.1824 60.2831 57.5257 62.5354 57.5257 68.5182C57.5257 78.5481 48.094 79.6039 44.1525 79.6039C40.5276 80.0966 37.501 79.5687 34.6504 78.6185ZM109.611 53.1037C111.019 53.2445 113.165 53.1037 115.242 52.7166C117.037 52.3295 117.635 52.1183 118.937 51.5553L119.535 51.9424V54.0891C120.943 52.9982 123.723 51.4497 127.665 51.4497C132.697 51.4497 135.935 53.8428 136.85 58.0307C137.097 59.1217 137.237 61.5852 137.237 63.0633V71.1928C137.237 75.7327 137.484 77.07 138.328 77.8795C138.786 78.2666 139.736 78.7241 141.109 78.7241V80.0262C139.314 79.8855 136.076 79.7799 134.211 79.7799C131.712 79.7799 128.861 79.9206 127.313 80.0262V78.7241C128.721 78.5833 129.565 78.1258 130.093 77.7739C130.938 76.9292 131.043 75.3808 131.184 71.8967C131.184 70.8057 131.325 68.659 131.325 67.1105C131.325 65.1045 131.325 62.9225 131.079 60.7758C130.691 57.2213 128.826 55.532 125.201 55.532C122.703 55.532 121.154 56.1303 119.958 56.6934V71.2632C119.958 75.8031 120.204 77.1404 121.049 77.9498C121.506 78.337 122.597 78.7945 123.688 78.7945V80.0966C121.436 79.9558 118.656 79.8503 116.896 79.8503C113.201 79.8503 112.004 79.991 109.857 80.0966V78.7241C111.019 78.7241 112.25 78.2666 112.849 77.5627C113.693 76.6125 113.799 74.2194 113.799 69.574V61.3037C113.799 57.8196 113.658 56.4119 113.201 55.6728C112.814 55.0745 111.899 54.5818 109.963 54.5818V53.0334H109.717V53.1037H109.611ZM144.135 78.5481C145.296 78.5481 146.528 78.161 147.127 77.3868C147.971 76.4366 148.077 74.0434 148.077 69.398V55.4969H144.522V53.9484C146.071 53.3501 147.373 52.6462 148.077 52.0128C148.077 49.5141 148.217 46.3819 148.534 44.5871C149.625 38.8507 153.32 36.0001 159.62 36.0001C162.4 36.0001 164.969 36.9503 166.659 38.2524L166.799 38.8507L164.019 42.6515H163.315C162.365 40.3991 160.922 39.097 158.423 39.097C157.579 39.097 156.417 39.3434 155.643 40.0472C154.482 41.2086 154.235 43.0386 154.235 46.6283V51.9776H160.429V55.4617H154.235V70.8761C154.235 74.5713 154.376 76.3662 154.834 77.07C155.538 78.2314 158.071 78.3722 159.233 78.3722V79.7799C157.227 79.6391 153.989 79.5335 151.702 79.5335C148.217 79.5335 145.965 79.6743 144.17 79.7799L144.135 78.5481ZM176.125 80.3078C167.679 80.3078 162.647 75.064 162.647 66.2306C162.647 59.3329 166.342 51.3089 176.724 51.3089C185.17 51.3089 190.202 56.5526 190.202 65.386C190.202 72.2838 186.472 80.3078 176.125 80.3078ZM176.477 54.5115C174.788 54.5115 173.486 54.969 172.536 55.8136C170.283 57.7492 169.192 61.0573 169.192 65.9491C169.192 67.8847 169.58 77.1756 176.372 77.1756C178.061 77.1756 179.363 76.7181 180.313 75.8735C182.566 73.9379 183.657 70.6297 183.657 65.738C183.621 63.8375 183.305 54.5115 176.477 54.5115ZM193.053 52.963C194.989 53.1037 196.995 52.8222 199.141 52.5055C200.831 52.2591 201.922 51.9072 202.485 51.5553L202.942 51.8016V54.1947C204.244 52.8926 206.426 51.5553 209.383 51.5553C211.529 51.5553 212.937 52.1535 214.274 53.2445V54.0891L211.881 58.4179H210.72C210.016 57.1157 208.573 55.9192 206.074 55.9192C204.913 55.9192 203.928 56.1655 203.083 56.7638V70.9817C203.083 74.6769 203.224 76.331 203.681 77.07C204.385 78.2314 206.778 78.3722 208.08 78.2314V79.7799C206.145 79.6391 202.837 79.5335 200.549 79.5335C197.91 79.5335 195.2 79.5335 193.018 79.7799V78.3722C194.566 78.2314 195.411 77.9147 196.009 77.2108C196.854 76.2606 196.959 73.9731 196.959 69.222V61.4796C196.959 57.9955 196.959 56.5878 196.361 55.8488C195.904 55.2505 194.953 54.8986 193.123 54.8986V53.1037L193.053 52.963ZM232.117 37.6893C233.806 37.6893 235.918 37.3022 238.698 36.8447C240.247 36.5983 241.197 36.2464 241.689 36.1408L242.147 36.3872C241.901 38.6395 241.901 43.8128 241.901 47.4729V70.1371C241.901 73.4804 241.901 75.6271 242.358 76.331C242.816 76.9293 243.766 77.4219 245.596 77.4219V78.8297C243.801 78.8297 241.795 79.076 239.648 79.4279C238.241 79.6743 237.15 79.8854 236.551 80.1318L235.848 79.8854V77.4923C234.44 78.5833 231.8 80.1318 228.105 80.1318C220.468 80.1318 215.576 74.8881 215.576 66.653C215.576 63.8727 216.034 61.4092 216.984 59.1217C219.377 54.0891 224.164 51.2385 230.217 51.2385C232.469 51.2385 234.405 51.4849 235.566 51.696V45.8188C235.566 42.3348 235.566 40.5751 234.968 39.7305C234.581 39.1322 234.017 38.8859 231.976 38.7803V37.6541H232.117V37.6893ZM231.132 76.2254C233.067 76.2254 234.369 75.979 235.672 75.1344V56.5526C235.214 56.0951 233.525 54.617 230.181 54.617C224.832 54.617 222.193 58.3123 222.193 65.9843C222.087 69.1868 223.037 76.2254 231.132 76.2254ZM79.31 77.07C78.4654 78.161 76.3186 80.3078 71.7788 80.3078C67.4501 80.3078 65.0922 78.7593 64.0364 75.2752C63.5789 73.9731 63.5789 71.228 63.5789 69.6444C63.5789 65.2453 63.5789 61.6556 63.7196 57.4676V55.532H59.9892V54.4411C61.3969 53.8428 62.4879 53.2797 63.4733 52.5055C65.62 50.8162 67.0278 48.8102 68.6114 45.8188H69.7728V52.0128H79.2045V55.4969H69.7728V70.0667C69.7728 74.4658 70.6174 76.8589 74.6646 76.8589C76.6002 76.8589 77.9023 76.2606 78.6062 75.7679L79.31 77.07Z" fill="white"/>
<path d="M211.6 103.113C211.142 103.113 210.509 103.253 210.192 103.57C209.805 103.817 209.805 104.168 209.805 104.415C209.805 104.872 209.946 105.259 210.262 106.21L212.902 113.107C213.289 114.198 213.606 115.043 213.746 115.606L216.984 106.174C217.371 105.083 217.442 104.872 217.442 104.38C217.442 104.133 217.301 103.922 217.054 103.676C216.667 103.429 216.21 103.218 215.647 103.218V102.127C216.034 102.127 216.808 102.127 217.195 102.268C217.582 102.268 218.286 102.409 218.884 102.409C220.046 102.409 221.735 102.268 222.439 102.268V103.359C221.981 103.5 220.89 103.218 219.94 105.998L213.148 124.123C212.198 126.762 210.896 130 206.25 130C204.315 130 203.013 129.542 201.922 128.592V128.135L203.611 126.129H204.068C204.526 127.22 205.476 127.677 206.849 127.677C208.995 127.677 209.946 125.742 211.388 121.941L211.776 120.85L206.074 105.963C206.074 105.823 205.934 105.576 205.828 105.365C205.687 104.978 205.37 104.274 205.37 104.274C204.983 103.57 204.42 103.324 203.681 103.324V102.233C204.772 102.374 206.673 102.374 207.623 102.374C208.221 102.374 209.171 102.374 210.121 102.233C210.579 102.233 211.424 102.092 211.811 102.092V103.042H211.67V103.113H211.6ZM148.393 102.866C149.555 103.007 150.892 102.726 152.194 102.479C153.285 102.233 153.883 102.092 154.341 101.881L154.728 102.022V103.57C155.573 102.726 156.875 101.881 158.775 101.881C160.183 101.881 161.028 102.268 161.872 102.972V103.57L160.464 106.35H159.761C159.303 105.506 158.458 104.802 156.769 104.802C156.065 104.802 155.467 105.048 154.834 105.4V114.374C154.834 116.767 154.974 117.858 155.221 118.316C155.678 119.02 157.156 119.161 158.001 119.161V120.111C156.84 119.97 154.658 119.97 153.215 119.97C151.525 119.97 149.731 119.97 148.429 120.216V119.266C149.379 119.266 149.977 118.879 150.364 118.562C150.962 117.964 150.962 116.556 150.962 113.424V108.392C150.962 106.245 150.962 105.295 150.575 104.837C150.329 104.45 149.625 104.239 148.569 104.239V102.937H148.393V102.866ZM68.9281 120.181C63.8955 120.181 60.9393 118.633 59.8483 115.289C59.25 113.6 59.25 111.489 59.25 109.799V100.262C59.25 97.4114 59.1093 96.9187 58.5462 96.4612C58.2998 96.2149 57.7016 96.0037 56.8569 95.863V94.9127C58.0183 95.0535 60.0947 95.1591 61.256 95.1591C63.262 95.1591 64.4938 95.1591 65.7959 94.9127V96.0037C64.9513 96.0037 64.3882 96.2501 63.8603 96.7076C63.262 97.3059 63.262 98.3968 63.262 101.494V109.94C63.262 114.973 63.7195 118.21 69.3504 118.21C75.0868 118.21 75.4387 114.867 75.4387 109.764V100.473C75.4387 97.6226 75.2979 97.1299 74.7349 96.6724C74.3477 96.426 73.7847 96.2149 73.0456 96.0741V95.1239C74.1366 95.1239 75.5443 95.2647 76.9872 95.2647C78.2893 95.2647 79.6267 95.2647 81.1751 95.0183V96.1093C80.3305 96.1093 79.7674 96.3556 79.2395 96.8132C78.6413 97.4114 78.6413 98.5024 78.6413 101.599V108.779C78.6413 111.031 78.6413 113.565 77.9374 115.571C76.8112 118.633 73.9254 120.181 68.9281 120.181ZM102.959 119.09C103.91 118.949 104.508 118.844 104.965 118.386C105.564 117.788 105.564 116.38 105.564 113.248V108.216C105.564 106.069 105.564 104.978 105.177 104.52C104.93 104.133 104.473 103.922 103.171 103.817V102.726C103.874 102.866 105.81 102.585 107.218 102.338C107.922 102.198 108.626 101.951 109.153 101.74L109.541 102.127C109.4 103.289 109.4 105.823 109.4 109.166V114.304C109.4 116.697 109.541 117.788 109.787 118.246C110.174 118.703 110.878 119.09 111.934 119.09V119.935C110.983 119.794 109.153 119.794 107.605 119.794C105.81 119.794 103.91 119.935 102.959 120.04V119.09ZM107.359 98.6784C105.951 98.6784 105.106 97.8337 105.106 96.5316C105.106 95.2295 106.056 94.2793 107.499 94.2793C108.907 94.2793 109.752 95.1239 109.752 96.426C109.716 97.8337 108.766 98.6784 107.359 98.6784ZM178.413 119.09C179.363 118.949 179.961 118.844 180.419 118.386C181.017 117.788 181.017 116.38 181.017 113.248V108.216C181.017 106.069 181.017 104.978 180.63 104.52C180.384 104.133 179.926 103.922 178.624 103.817V102.726C179.328 102.866 181.263 102.585 182.671 102.338C183.375 102.198 184.22 101.951 184.607 101.74L184.994 102.127C184.853 103.289 184.853 105.823 184.853 109.166V114.304C184.853 116.697 184.994 117.788 185.24 118.246C185.627 118.703 186.331 119.09 187.387 119.09V119.935C186.296 119.794 184.536 119.794 182.988 119.794C181.193 119.794 179.293 119.935 178.342 120.04V119.09H178.413ZM182.812 98.6784C181.404 98.6784 180.56 97.8337 180.56 96.5316C180.56 95.2295 181.51 94.2793 182.953 94.2793C184.36 94.2793 185.205 95.1239 185.205 96.426C185.205 97.8337 184.22 98.6784 182.812 98.6784ZM163.949 119.337C163.949 117.542 163.808 115.641 163.702 114.691H164.864C164.864 115.641 165.11 116.486 165.567 116.943C166.271 117.788 167.116 118.105 168.664 118.105H168.911C170.846 118.105 171.902 117.26 171.902 115.606C171.902 114.304 171.057 113.67 169.65 112.826L167.151 111.277C165.849 110.433 164.3 109.271 164.3 106.738C164.3 104.732 165.145 103.183 166.799 102.338C167.89 101.74 169.579 101.74 170.354 101.74C171.761 101.74 173.838 101.986 174.999 102.198C174.858 102.655 174.858 103.887 174.858 104.344C174.858 104.732 174.858 106.35 174.999 106.738H173.838C173.838 106.034 173.591 105.33 173.134 104.732C172.676 104.133 171.585 103.781 170.283 103.781C168.488 103.781 167.503 104.485 167.503 106.034C167.503 107.195 168.453 107.828 169.298 108.427H169.439L171.832 109.834C173.38 110.785 175.386 111.981 175.386 114.726C175.386 119.372 171.057 120.076 168.594 120.076C167.186 120.04 165.638 119.935 163.949 119.337ZM201.429 118.175C200.831 118.773 199.493 120.181 196.643 120.181C193.862 120.181 192.314 119.231 191.751 116.943C191.504 116.099 191.505 114.304 191.505 113.389C191.505 110.538 191.505 108.251 191.505 105.647V104.485H189.111V103.781C190.062 103.394 190.66 103.077 191.364 102.62C192.666 101.529 193.616 100.227 194.707 98.2913H195.552V102.233H201.499V104.38H195.552V113.67C195.552 116.451 196.009 118.07 198.649 118.07C199.81 118.07 200.655 117.682 201.147 117.366L201.429 118.175ZM120.697 102.162C120.31 102.162 119.535 102.162 119.007 102.303C118.057 102.303 117.072 102.444 116.368 102.444C115.066 102.444 113.13 102.303 112.567 102.303V103.394C112.813 103.394 113.728 103.253 114.362 104.485C114.608 104.943 114.749 105.33 114.819 105.576C114.96 105.823 115.066 106.034 115.066 106.174L120.802 120.498L122.597 120.111L128.932 106.034C128.932 105.893 129.073 105.787 129.178 105.576C129.319 105.435 129.319 105.189 129.776 104.485C130.163 103.781 130.938 103.394 131.571 103.394V102.303C130.867 102.303 129.319 102.444 128.087 102.444C127.489 102.444 126.926 102.444 126.292 102.303C125.835 102.303 125.131 102.162 124.603 102.162V103.113C125.201 103.113 125.764 103.359 126.011 103.57C126.152 103.711 126.398 104.028 126.398 104.274C126.398 104.661 126.257 104.978 125.94 106.069L122.456 114.515C122.315 114.058 122.069 113.354 121.752 112.368L119.359 106.034C118.972 105.083 118.902 104.732 118.902 104.239C118.902 103.992 118.902 103.781 119.148 103.641C119.535 103.253 120.098 103.042 120.697 103.042V102.092V102.162ZM81.703 102.866C82.6532 103.007 83.9554 102.866 85.2575 102.62C86.3485 102.374 86.806 102.233 87.6506 101.916L88.0377 102.162V103.57C88.8824 102.866 90.818 101.881 93.1759 101.881C96.4136 101.881 98.4196 103.429 99.0531 106.069C99.1938 106.773 99.2994 108.321 99.2994 109.307V114.445C99.2994 117.295 99.4402 118.14 100.003 118.773C100.25 119.02 100.953 119.231 101.693 119.231V120.076C100.531 120.076 98.4548 119.935 97.2934 119.935C95.6042 119.935 93.8093 120.076 92.8943 120.181V119.337C93.739 119.196 94.3021 118.949 94.6892 118.738C95.1467 118.281 95.2874 117.19 95.393 115.043C95.393 114.339 95.393 113.037 95.393 111.946C95.393 110.644 95.393 109.166 95.2523 107.899C95.0059 105.647 93.8445 104.556 91.557 104.556C90.0085 104.556 88.9176 104.943 88.2137 105.259V114.621C88.2137 117.471 88.3545 118.316 88.9176 118.949C89.1639 119.196 89.8678 119.407 90.6068 119.407V120.252C89.0583 119.864 87.2635 119.864 86.0669 119.864C83.6738 119.864 82.97 119.864 81.6678 120.111V119.266C82.3717 119.266 83.2163 119.02 83.6034 118.562C84.061 117.964 84.2017 116.416 84.2017 113.424V108.392C84.2017 106.245 84.2017 105.295 83.8146 104.837C83.5683 104.45 82.97 104.133 81.8086 104.239V102.902H81.703V102.866ZM139.701 120.181C134.351 120.181 131.43 117.084 131.43 111.453C131.43 110.503 131.677 101.775 139.771 101.775C142.164 101.775 144.311 102.726 145.261 104.415C146.352 106.104 146.423 107.758 146.423 109.201V110.292H135.337C135.337 111.242 135.478 111.981 135.583 112.544C136.181 116.028 138.082 117.682 141.46 117.682C143.396 117.682 144.557 117.295 145.648 116.591L146.106 117.436C144.98 119.02 142.587 120.181 139.701 120.181ZM135.407 108.251H142.305C142.305 106.104 141.918 103.711 138.821 103.711C136.111 103.852 135.548 106.421 135.407 108.251Z" fill="white"/>
</svg>
