<?xml version="1.0"?>
<svg xmlns="http://www.w3.org/2000/svg" width="280" height="150" viewBox="0 0 280 150" fill="none">
<path d="M55.8665 73.2056C55.8665 75.4025 56.4562 75.6466 58.9493 75.7483V76.5314H49.0243V75.7483C51.0859 75.6466 51.6755 75.4025 51.6755 73.2056V58.8446C51.6755 56.6375 51.0859 56.3934 49.079 56.3019V55.4984H66.602L66.7205 60.1362H65.8584C65.1178 57.7868 64.3185 57.0443 60.2156 57.0443H57.0376C56.0833 57.0443 55.8665 57.2579 55.8665 58.1326V64.7843H59.4477C62.7159 64.7843 63.424 64.1943 63.8242 61.9975H64.6275V69.4323H63.8242C63.3926 66.9506 62.1577 66.3302 59.4477 66.3302H55.8665V73.2056ZM76.531 73.2056C76.531 75.4025 77.1125 75.6466 79.6138 75.7483V76.5314H69.2491V75.7483C71.7544 75.6466 72.3319 75.4025 72.3319 73.2056V58.8446C72.3319 56.6375 71.7544 56.3934 69.2491 56.3019V55.4984H79.6138V56.3019C77.1125 56.3934 76.531 56.6375 76.531 58.8446V73.2056ZM101.233 59.4345C101.233 57.3901 100.674 56.5562 98.3909 56.3019V55.4984H105.791V56.3019C103.512 56.5562 102.958 57.3901 102.958 59.4345V77.0501H101.909L87.6038 60.4515V72.6157C87.6038 74.66 88.1539 75.494 90.4374 75.7483V76.5314H83.0329V75.7483C85.3163 75.494 85.8705 74.66 85.8705 72.6157V58.4479C85.1623 57.1969 84.3266 56.607 83.0329 56.3019V55.4984H88.7395L101.233 69.9917V59.4345ZM112.424 68.9949L115.569 60.6651L118.688 68.9949H112.424ZM127.442 76.5314V75.7483C125.87 75.7788 125.471 75.0974 124.668 73.1141L117.295 55H116.282L108.601 73.765C108.075 75.0668 107.366 75.4635 106.041 75.7483V76.5314H112.701V75.7483C111.252 75.7483 110.544 75.433 110.544 74.4159C110.544 73.5514 111.503 71.2223 111.744 70.5409H119.333C119.579 71.2223 120.596 73.5514 120.596 74.4159C120.596 75.433 119.828 75.7483 118.376 75.7483V76.5314H127.442ZM147.766 59.4345C147.766 57.3901 147.213 56.5562 144.933 56.3019V55.4984H152.333V56.3019C150.049 56.5562 149.492 57.3901 149.492 59.4345V77.0501H148.446L134.136 60.4515L134.136 72.6157C134.136 74.66 134.691 75.494 136.974 75.7483V76.5314H129.569V75.7483C131.853 75.494 132.411 74.66 132.411 72.6157V58.4479C131.699 57.1969 130.864 56.607 129.569 56.3019V55.4984H135.276L147.765 69.9917L147.766 59.4345ZM174.244 71.5885C172.052 75.3415 169.183 77.0501 164.834 77.0501C158.019 77.0501 153.979 72.5547 153.979 65.8318C153.979 61.0414 157.742 55 165.052 55C167.24 55 170.35 56.2408 170.817 56.2408C171.431 56.2408 171.616 55.9052 172.116 55H173.16L173.595 62.028H172.669C171.431 58.7733 169.247 56.4239 165.574 56.4239C160.639 56.4239 158.483 61.7839 158.483 65.8318C158.483 71.5071 160.916 75.3109 166.131 75.3109C170.2 75.3109 172.452 72.2801 173.409 70.9477L174.244 71.5885ZM184.399 73.2056C184.399 75.4025 184.989 75.6466 187.485 75.7483V76.5314H177.121V75.7483C179.622 75.6466 180.208 75.4025 180.208 73.2056V58.8446C180.208 56.6375 179.622 56.3934 177.121 56.3019V55.4984H187.485V56.3019C184.989 56.3934 184.399 56.6375 184.399 58.8446V73.2056ZM196.073 68.9949L199.218 60.6651L202.333 68.9949H196.073ZM211.094 76.5314V75.7483C209.519 75.7788 209.12 75.0974 208.321 73.1141L200.947 55H199.931L192.25 73.765C191.723 75.0668 191.015 75.4635 189.689 75.7483V76.5314H196.349V75.7483C194.901 75.7483 194.193 75.433 194.193 74.4159C194.193 73.5514 195.151 71.2223 195.396 70.5409H202.982C203.227 71.2223 204.244 73.5514 204.244 74.4159C204.244 75.433 203.473 75.7483 202.024 75.7483V76.5314H211.094ZM212.927 76.5314V75.7483C214.933 75.6568 215.518 75.4025 215.518 73.2056V58.8446C215.518 56.6375 214.933 56.3934 212.927 56.3019V55.4984H222.61V56.3019C220.299 56.3934 219.709 56.6375 219.709 58.8446V73.6124C219.709 74.8838 220.081 75.3109 222.424 75.3109C226.188 75.3109 228.408 74.6295 230.197 70.9172H231L229.583 76.5314H212.927ZM53.6226 109.708C56.0043 109.607 56.5858 109.362 56.5858 107.166V91.0044H53.9985C51.561 91.0044 50.6027 91.9909 49.9259 94.8387H49L49.4944 89.4584H67.8724L68.3667 94.8387H67.4368C66.7641 91.9909 65.8067 91.0044 63.3734 91.0044H60.7809V107.166C60.7809 109.362 61.3665 109.607 63.737 109.708V110.491H53.6226V109.708ZM77.8014 107.166C77.8014 109.362 78.391 109.607 80.8882 109.698V110.491H70.5236V109.698C73.0289 109.607 73.6104 109.362 73.6104 107.166V92.7944C73.6104 90.5975 73.0289 90.3534 70.5236 90.2619V89.4482H80.8882V90.2619C78.391 90.3534 77.8014 90.5975 77.8014 92.7944V107.166ZM102.902 89.4584H110.12V90.2619C108.114 90.3534 107.533 90.5975 107.533 92.7944V107.166C107.533 109.362 108.114 109.607 110.12 109.708V110.491H100.682V109.708C102.748 109.607 103.338 109.362 103.338 107.166V92.3672H103.274L96.2736 110.756H95.3163L88.474 92.3672H88.4112V106.576C88.4112 108.62 88.9644 109.454 91.2478 109.708V110.491H83.8484V109.708C86.1278 109.454 86.6819 108.62 86.6819 106.576V92.2757C86.6819 90.8213 86.068 90.2619 83.8484 90.2619V89.4584H91.4656L97.0456 104.064L102.902 89.4584ZM113.097 110.491V109.708C115.098 109.607 115.684 109.362 115.684 107.166V92.7944C115.684 90.5975 115.098 90.3534 113.097 90.2619V89.4584H130.61L130.733 94.0962H129.874C129.131 91.7468 128.327 91.0044 124.228 91.0044H121.054C120.093 91.0044 119.883 91.2179 119.883 92.0825V98.7443H123.456C126.725 98.7443 127.433 98.1544 127.837 95.9575H128.639V103.382H127.837C127.402 100.911 126.171 100.29 123.456 100.29H119.883V107.572C119.883 108.834 120.251 109.271 123.952 109.271C127.711 109.271 129.934 108.59 131.722 104.867H132.523L131.105 110.491H113.097ZM135.249 103.88H136.057C136.947 106.667 139.602 109.576 142.689 109.576C145.336 109.576 146.294 107.725 146.294 106.077C146.294 101.246 135.439 100.351 135.439 94.3505C135.439 91.4417 138.245 88.96 141.45 88.96C144.596 88.96 145.705 90.0686 147.098 90.0686C147.683 90.0686 148.052 89.611 148.206 88.96H149.009V95.6422H148.206C147.343 92.6113 145.186 90.3839 142.345 90.3839C140.006 90.3839 139.135 91.8994 139.135 93.3334C139.135 97.6255 149.995 97.7577 149.995 105.152C149.994 108.457 147.283 111 143.515 111C139.816 111 138.861 109.708 137.41 109.708C136.859 109.708 136.484 110.074 136.364 110.756H135.249L135.249 103.88Z" fill="white"/>
</svg>
