<?xml version="1.0"?>
<svg xmlns="http://www.w3.org/2000/svg" width="280" height="150" viewBox="0 0 280 150" fill="none">
<path d="M51.6127 113.765V101.057H54.4207V113.765H51.6127ZM49.1647 103.451V101.057H54.2407V103.451H49.1647ZM61.6194 113.963C60.5994 113.963 59.6754 113.687 58.8474 113.135C58.0194 112.583 57.3654 111.815 56.8854 110.831C56.4174 109.835 56.1834 108.689 56.1834 107.393C56.1834 106.085 56.4174 104.945 56.8854 103.973C57.3534 102.989 57.9954 102.227 58.8114 101.687C59.6274 101.135 60.5514 100.859 61.5834 100.859C62.6274 100.859 63.5574 101.135 64.3734 101.687C65.1894 102.227 65.8314 102.989 66.2994 103.973C66.7794 104.957 67.0194 106.103 67.0194 107.411C67.0194 108.719 66.7794 109.865 66.2994 110.849C65.8314 111.833 65.1894 112.601 64.3734 113.153C63.5694 113.693 62.6514 113.963 61.6194 113.963ZM61.6014 111.461C62.1294 111.461 62.5854 111.311 62.9694 111.011C63.3534 110.699 63.6474 110.243 63.8514 109.643C64.0674 109.031 64.1754 108.287 64.1754 107.411C64.1754 106.523 64.0674 105.779 63.8514 105.179C63.6474 104.579 63.3534 104.129 62.9694 103.829C62.5854 103.517 62.1234 103.361 61.5834 103.361C61.0674 103.361 60.6114 103.511 60.2154 103.811C59.8314 104.111 59.5374 104.561 59.3334 105.161C59.1294 105.761 59.0274 106.505 59.0274 107.393C59.0274 108.281 59.1294 109.025 59.3334 109.625C59.5374 110.225 59.8314 110.681 60.2154 110.993C60.6114 111.305 61.0734 111.461 61.6014 111.461ZM73.6077 113.963C72.5877 113.963 71.6637 113.687 70.8357 113.135C70.0077 112.583 69.3537 111.815 68.8737 110.831C68.4057 109.835 68.1717 108.689 68.1717 107.393C68.1717 106.085 68.4057 104.945 68.8737 103.973C69.3417 102.989 69.9837 102.227 70.7997 101.687C71.6157 101.135 72.5397 100.859 73.5717 100.859C74.6157 100.859 75.5457 101.135 76.3617 101.687C77.1777 102.227 77.8197 102.989 78.2877 103.973C78.7677 104.957 79.0077 106.103 79.0077 107.411C79.0077 108.719 78.7677 109.865 78.2877 110.849C77.8197 111.833 77.1777 112.601 76.3617 113.153C75.5577 113.693 74.6397 113.963 73.6077 113.963ZM73.5897 111.461C74.1177 111.461 74.5737 111.311 74.9577 111.011C75.3417 110.699 75.6357 110.243 75.8397 109.643C76.0557 109.031 76.1637 108.287 76.1637 107.411C76.1637 106.523 76.0557 105.779 75.8397 105.179C75.6357 104.579 75.3417 104.129 74.9577 103.829C74.5737 103.517 74.1117 103.361 73.5717 103.361C73.0557 103.361 72.5997 103.511 72.2037 103.811C71.8197 104.111 71.5257 104.561 71.3217 105.161C71.1177 105.761 71.0157 106.505 71.0157 107.393C71.0157 108.281 71.1177 109.025 71.3217 109.625C71.5257 110.225 71.8197 110.681 72.2037 110.993C72.5997 111.305 73.0617 111.461 73.5897 111.461ZM85.596 113.963C84.576 113.963 83.652 113.687 82.824 113.135C81.996 112.583 81.342 111.815 80.862 110.831C80.394 109.835 80.16 108.689 80.16 107.393C80.16 106.085 80.394 104.945 80.862 103.973C81.33 102.989 81.972 102.227 82.788 101.687C83.604 101.135 84.528 100.859 85.56 100.859C86.604 100.859 87.534 101.135 88.35 101.687C89.166 102.227 89.808 102.989 90.276 103.973C90.756 104.957 90.996 106.103 90.996 107.411C90.996 108.719 90.756 109.865 90.276 110.849C89.808 111.833 89.166 112.601 88.35 113.153C87.546 113.693 86.628 113.963 85.596 113.963ZM85.578 111.461C86.106 111.461 86.562 111.311 86.946 111.011C87.33 110.699 87.624 110.243 87.828 109.643C88.044 109.031 88.152 108.287 88.152 107.411C88.152 106.523 88.044 105.779 87.828 105.179C87.624 104.579 87.33 104.129 86.946 103.829C86.562 103.517 86.1 103.361 85.56 103.361C85.044 103.361 84.588 103.511 84.192 103.811C83.808 104.111 83.514 104.561 83.31 105.161C83.106 105.761 83.004 106.505 83.004 107.393C83.004 108.281 83.106 109.025 83.31 109.625C83.514 110.225 83.808 110.681 84.192 110.993C84.588 111.305 85.05 111.461 85.578 111.461ZM96.224 113.765V101.057H99.05V113.765H96.224ZM98.384 113.765V111.317H105.35V113.765H98.384ZM98.384 108.455V106.097H104.72V108.455H98.384ZM98.384 103.487V101.057H105.26V103.487H98.384ZM112.464 113.765L110.358 110.363L109.764 109.985L106.326 105.017H109.548L111.51 108.203L112.086 108.563L115.65 113.765H112.464ZM106.164 113.765L109.746 108.671L111.312 110.435L109.17 113.765H106.164ZM112.068 109.967L110.502 108.203L112.482 105.017H115.47L112.068 109.967ZM120.698 113.963C119.798 113.963 118.982 113.765 118.25 113.369C117.518 112.973 116.942 112.427 116.522 111.731C116.102 111.035 115.892 110.255 115.892 109.391C115.892 108.515 116.102 107.735 116.522 107.051C116.954 106.355 117.536 105.809 118.268 105.413C119 105.017 119.822 104.819 120.734 104.819C121.418 104.819 122.042 104.939 122.606 105.179C123.182 105.407 123.692 105.755 124.136 106.223L122.372 107.987C122.168 107.759 121.928 107.591 121.652 107.483C121.388 107.375 121.082 107.321 120.734 107.321C120.338 107.321 119.984 107.411 119.672 107.591C119.372 107.759 119.132 107.999 118.952 108.311C118.784 108.611 118.7 108.965 118.7 109.373C118.7 109.781 118.784 110.141 118.952 110.453C119.132 110.765 119.378 111.011 119.69 111.191C120.002 111.371 120.35 111.461 120.734 111.461C121.094 111.461 121.412 111.401 121.688 111.281C121.976 111.149 122.222 110.969 122.426 110.741L124.172 112.505C123.716 112.985 123.2 113.351 122.624 113.603C122.048 113.843 121.406 113.963 120.698 113.963ZM129.507 113.963C128.559 113.963 127.713 113.771 126.969 113.387C126.237 112.991 125.661 112.445 125.241 111.749C124.821 111.053 124.611 110.267 124.611 109.391C124.611 108.515 124.815 107.735 125.223 107.051C125.643 106.355 126.207 105.809 126.915 105.413C127.623 105.017 128.421 104.819 129.309 104.819C130.173 104.819 130.935 105.005 131.595 105.377C132.255 105.749 132.771 106.265 133.143 106.925C133.527 107.585 133.719 108.341 133.719 109.193C133.719 109.349 133.707 109.517 133.683 109.697C133.671 109.865 133.641 110.063 133.593 110.291L126.051 110.309V108.419L132.423 108.401L131.235 109.193C131.223 108.689 131.145 108.275 131.001 107.951C130.857 107.615 130.641 107.363 130.353 107.195C130.077 107.015 129.735 106.925 129.327 106.925C128.895 106.925 128.517 107.027 128.193 107.231C127.881 107.423 127.635 107.699 127.455 108.059C127.287 108.419 127.203 108.857 127.203 109.373C127.203 109.889 127.293 110.333 127.473 110.705C127.665 111.065 127.929 111.347 128.265 111.551C128.613 111.743 129.021 111.839 129.489 111.839C129.921 111.839 130.311 111.767 130.659 111.623C131.007 111.467 131.313 111.239 131.577 110.939L133.089 112.451C132.657 112.955 132.135 113.333 131.523 113.585C130.911 113.837 130.239 113.963 129.507 113.963ZM135.048 113.765V100.697H137.802V113.765H135.048ZM139.742 113.765V100.697H142.496V113.765H139.742ZM148.755 113.963C147.807 113.963 146.961 113.771 146.217 113.387C145.485 112.991 144.909 112.445 144.489 111.749C144.069 111.053 143.859 110.267 143.859 109.391C143.859 108.515 144.063 107.735 144.471 107.051C144.891 106.355 145.455 105.809 146.163 105.413C146.871 105.017 147.669 104.819 148.557 104.819C149.421 104.819 150.183 105.005 150.843 105.377C151.503 105.749 152.019 106.265 152.391 106.925C152.775 107.585 152.967 108.341 152.967 109.193C152.967 109.349 152.955 109.517 152.931 109.697C152.919 109.865 152.889 110.063 152.841 110.291L145.299 110.309V108.419L151.671 108.401L150.483 109.193C150.471 108.689 150.393 108.275 150.249 107.951C150.105 107.615 149.889 107.363 149.601 107.195C149.325 107.015 148.983 106.925 148.575 106.925C148.143 106.925 147.765 107.027 147.441 107.231C147.129 107.423 146.883 107.699 146.703 108.059C146.535 108.419 146.451 108.857 146.451 109.373C146.451 109.889 146.541 110.333 146.721 110.705C146.913 111.065 147.177 111.347 147.513 111.551C147.861 111.743 148.269 111.839 148.737 111.839C149.169 111.839 149.559 111.767 149.907 111.623C150.255 111.467 150.561 111.239 150.825 110.939L152.337 112.451C151.905 112.955 151.383 113.333 150.771 113.585C150.159 113.837 149.487 113.963 148.755 113.963ZM160.074 113.765V108.779C160.074 108.323 159.93 107.957 159.642 107.681C159.366 107.393 159.012 107.249 158.58 107.249C158.28 107.249 158.016 107.315 157.788 107.447C157.56 107.567 157.38 107.747 157.248 107.987C157.116 108.215 157.05 108.479 157.05 108.779L155.988 108.257C155.988 107.573 156.138 106.973 156.438 106.457C156.738 105.941 157.152 105.545 157.68 105.269C158.22 104.981 158.826 104.837 159.498 104.837C160.146 104.837 160.716 104.993 161.208 105.305C161.712 105.605 162.108 106.007 162.396 106.511C162.684 107.015 162.828 107.567 162.828 108.167V113.765H160.074ZM154.296 113.765V105.017H157.05V113.765H154.296ZM168.827 113.963C167.927 113.963 167.111 113.765 166.379 113.369C165.647 112.973 165.071 112.427 164.651 111.731C164.231 111.035 164.021 110.255 164.021 109.391C164.021 108.515 164.231 107.735 164.651 107.051C165.083 106.355 165.665 105.809 166.397 105.413C167.129 105.017 167.951 104.819 168.863 104.819C169.547 104.819 170.171 104.939 170.735 105.179C171.311 105.407 171.821 105.755 172.265 106.223L170.501 107.987C170.297 107.759 170.057 107.591 169.781 107.483C169.517 107.375 169.211 107.321 168.863 107.321C168.467 107.321 168.113 107.411 167.801 107.591C167.501 107.759 167.261 107.999 167.081 108.311C166.913 108.611 166.829 108.965 166.829 109.373C166.829 109.781 166.913 110.141 167.081 110.453C167.261 110.765 167.507 111.011 167.819 111.191C168.131 111.371 168.479 111.461 168.863 111.461C169.223 111.461 169.541 111.401 169.817 111.281C170.105 111.149 170.351 110.969 170.555 110.741L172.301 112.505C171.845 112.985 171.329 113.351 170.753 113.603C170.177 113.843 169.535 113.963 168.827 113.963ZM177.636 113.963C176.688 113.963 175.842 113.771 175.098 113.387C174.366 112.991 173.79 112.445 173.37 111.749C172.95 111.053 172.74 110.267 172.74 109.391C172.74 108.515 172.944 107.735 173.352 107.051C173.772 106.355 174.336 105.809 175.044 105.413C175.752 105.017 176.55 104.819 177.438 104.819C178.302 104.819 179.064 105.005 179.724 105.377C180.384 105.749 180.9 106.265 181.272 106.925C181.656 107.585 181.848 108.341 181.848 109.193C181.848 109.349 181.836 109.517 181.812 109.697C181.8 109.865 181.77 110.063 181.722 110.291L174.18 110.309V108.419L180.552 108.401L179.364 109.193C179.352 108.689 179.274 108.275 179.13 107.951C178.986 107.615 178.77 107.363 178.482 107.195C178.206 107.015 177.864 106.925 177.456 106.925C177.024 106.925 176.646 107.027 176.322 107.231C176.01 107.423 175.764 107.699 175.584 108.059C175.416 108.419 175.332 108.857 175.332 109.373C175.332 109.889 175.422 110.333 175.602 110.705C175.794 111.065 176.058 111.347 176.394 111.551C176.742 111.743 177.15 111.839 177.618 111.839C178.05 111.839 178.44 111.767 178.788 111.623C179.136 111.467 179.442 111.239 179.706 110.939L181.218 112.451C180.786 112.955 180.264 113.333 179.652 113.585C179.04 113.837 178.368 113.963 177.636 113.963ZM186.857 113.765V101.057H189.683V113.765H186.857ZM197.656 113.765V108.779C197.656 108.323 197.512 107.957 197.224 107.681C196.948 107.393 196.594 107.249 196.162 107.249C195.862 107.249 195.598 107.315 195.37 107.447C195.142 107.567 194.962 107.747 194.83 107.987C194.698 108.215 194.632 108.479 194.632 108.779L193.57 108.257C193.57 107.573 193.72 106.973 194.02 106.457C194.32 105.941 194.734 105.545 195.262 105.269C195.802 104.981 196.408 104.837 197.08 104.837C197.728 104.837 198.298 104.993 198.79 105.305C199.294 105.605 199.69 106.007 199.978 106.511C200.266 107.015 200.41 107.567 200.41 108.167V113.765H197.656ZM191.878 113.765V105.017H194.632V113.765H191.878ZM205.905 113.945C205.077 113.945 204.339 113.747 203.691 113.351C203.055 112.955 202.551 112.415 202.179 111.731C201.819 111.047 201.639 110.267 201.639 109.391C201.639 108.515 201.819 107.735 202.179 107.051C202.551 106.367 203.055 105.827 203.691 105.431C204.339 105.035 205.077 104.837 205.905 104.837C206.505 104.837 207.045 104.951 207.525 105.179C208.017 105.407 208.419 105.725 208.731 106.133C209.055 106.529 209.235 106.985 209.271 107.501V111.191C209.235 111.707 209.061 112.175 208.749 112.595C208.437 113.003 208.035 113.333 207.543 113.585C207.051 113.825 206.505 113.945 205.905 113.945ZM206.391 111.461C206.787 111.461 207.129 111.377 207.417 111.209C207.705 111.029 207.933 110.783 208.101 110.471C208.269 110.159 208.353 109.799 208.353 109.391C208.353 108.983 208.269 108.629 208.101 108.329C207.945 108.017 207.717 107.771 207.417 107.591C207.129 107.411 206.793 107.321 206.409 107.321C206.025 107.321 205.683 107.411 205.383 107.591C205.095 107.771 204.861 108.017 204.681 108.329C204.513 108.641 204.429 108.995 204.429 109.391C204.429 109.787 204.513 110.141 204.681 110.453C204.849 110.765 205.083 111.011 205.383 111.191C205.683 111.371 206.019 111.461 206.391 111.461ZM210.945 113.765H208.245V111.407L208.659 109.283L208.191 107.159V100.697H210.945V113.765ZM217.204 113.963C216.256 113.963 215.41 113.771 214.666 113.387C213.934 112.991 213.358 112.445 212.938 111.749C212.518 111.053 212.308 110.267 212.308 109.391C212.308 108.515 212.512 107.735 212.92 107.051C213.34 106.355 213.904 105.809 214.612 105.413C215.32 105.017 216.118 104.819 217.006 104.819C217.87 104.819 218.632 105.005 219.292 105.377C219.952 105.749 220.468 106.265 220.84 106.925C221.224 107.585 221.416 108.341 221.416 109.193C221.416 109.349 221.404 109.517 221.38 109.697C221.368 109.865 221.338 110.063 221.29 110.291L213.748 110.309V108.419L220.12 108.401L218.932 109.193C218.92 108.689 218.842 108.275 218.698 107.951C218.554 107.615 218.338 107.363 218.05 107.195C217.774 107.015 217.432 106.925 217.024 106.925C216.592 106.925 216.214 107.027 215.89 107.231C215.578 107.423 215.332 107.699 215.152 108.059C214.984 108.419 214.9 108.857 214.9 109.373C214.9 109.889 214.99 110.333 215.17 110.705C215.362 111.065 215.626 111.347 215.962 111.551C216.31 111.743 216.718 111.839 217.186 111.839C217.618 111.839 218.008 111.767 218.356 111.623C218.704 111.467 219.01 111.239 219.274 110.939L220.786 112.451C220.354 112.955 219.832 113.333 219.22 113.585C218.608 113.837 217.936 113.963 217.204 113.963ZM227.935 113.765L225.829 110.363L225.235 109.985L221.797 105.017H225.019L226.981 108.203L227.557 108.563L231.121 113.765H227.935ZM221.635 113.765L225.217 108.671L226.783 110.435L224.641 113.765H221.635ZM227.539 109.967L225.973 108.203L227.953 105.017H230.941L227.539 109.967Z" fill="white"/>
<g clip-path="url(#clip0_4707_264)">
<path fill-rule="evenodd" clip-rule="evenodd" d="M60 46.2352H218V86.7294H60V46.2352Z" fill="#FF0500"/>
<path d="M94.3119 59.5133H92.5165V75.1669H89.1501L80.9586 64.5067V71.6883H82.754V75.1669H75.1797V71.6883H76.9751V59.5133H75.1797V56.0347H80.9586L88.5891 65.9655V59.5133H86.7937V56.0347H94.368C94.3119 56.0347 94.3119 59.5133 94.3119 59.5133ZM106.319 68.4341C106.319 68.7147 106.319 68.9952 106.319 69.3318H97.9588C97.7344 72.0249 98.7443 72.8104 100.259 72.8104C101.55 72.8104 102.503 71.9688 102.503 70.6223H106.094C106.038 72.9787 104.804 75.6718 100.035 75.6718C95.3218 75.6718 93.1337 72.2494 93.1337 68.4341C93.1337 65.0117 95.3779 61.3648 99.9786 61.3648C104.355 61.3648 106.319 64.4506 106.319 68.4341ZM126.966 65.0117H125.731L122.646 75.3913H118.55L116.642 69.7246L114.903 75.3913H110.751L107.329 65.0117H106.094V61.477H113.332V65.0117H111.537L113.444 70.5101L115.913 61.477H118.157L121.187 70.5101L122.814 65.0117H121.018V61.477H127.078C126.966 61.477 126.966 65.0117 126.966 65.0117ZM132.071 65.1239C132.071 65.6288 132.464 65.9655 133.811 66.3582L135.774 66.9754C137.57 67.5926 139.758 68.883 139.758 71.3517C139.758 74.2131 137.626 75.6157 134.933 75.6157C132.801 75.6157 131.174 74.6058 130.725 74.1009V75.2791H127.19V70.454H130.669C130.781 72.0249 132.184 72.8665 133.418 72.8665C134.428 72.8665 134.933 72.4177 134.933 71.9127C134.933 71.2956 134.54 70.9028 132.801 70.3418L131.061 69.7807C129.322 69.2196 127.358 67.9292 127.358 65.5727C127.358 62.7113 129.883 61.3087 132.015 61.3087C134.26 61.3087 135.326 61.9258 135.887 62.543V61.477H139.421V65.7972H135.774C135.718 64.6189 134.596 64.114 133.418 64.114C132.464 64.1701 132.071 64.5628 132.071 65.1239ZM160.91 65.0117H159.676L156.59 75.3913H152.494L150.586 69.7246L148.847 75.3913H144.695L141.273 65.0117H140.038V61.477H147.276V65.0117H145.481L147.388 70.5101L149.801 61.477H152.045L155.075 70.5101L156.702 65.0117H154.851V61.477H160.91V65.0117ZM173.702 68.4341C173.702 68.7147 173.702 68.9952 173.702 69.3318H165.398C165.174 72.0249 166.184 72.8104 167.699 72.8104C168.989 72.8104 169.943 71.9688 169.943 70.6223H173.534C173.478 72.9787 172.187 75.6718 167.474 75.6718C162.705 75.6718 160.517 72.2494 160.517 68.4341C160.517 65.0117 162.818 61.3648 167.418 61.3648C171.795 61.3648 173.702 64.3945 173.702 68.4341ZM187.392 68.378C187.392 68.6586 187.392 68.9391 187.392 69.2757H179.088C178.864 71.9688 179.874 72.7543 181.389 72.7543C182.679 72.7543 183.633 71.9127 183.633 70.5662H187.224C187.168 72.9226 185.877 75.6157 181.164 75.6157C176.395 75.6157 174.207 72.1933 174.207 68.378C174.207 64.9556 176.508 61.3087 181.108 61.3087C185.485 61.3087 187.392 64.3384 187.392 68.378ZM202.485 75.3352H198.333L194.013 69.6685L192.61 70.7345V71.8566H193.844V75.3913H187.392V71.9127H188.626V59.5694H186.831V56.0347H192.61V67.1437L195.528 65.0117H193.732V61.477H201.419V65.0117H200.184L197.155 67.2559L200.633 71.8005H202.429C202.485 71.8566 202.485 75.3352 202.485 75.3352ZM179.088 67.0315H183.633C183.633 65.0678 182.343 64.2823 181.445 64.2823C180.323 64.2823 179.145 65.18 179.088 67.0315ZM165.398 67.0315H169.943C169.943 65.0678 168.653 64.2823 167.699 64.2823C166.633 64.3384 165.455 65.2361 165.398 67.0315ZM98.0149 67.0876H102.56C102.56 65.1239 101.269 64.3384 100.315 64.3384C99.1931 64.3384 98.071 65.2361 98.0149 67.0876Z" fill="white"/>
</g>
<defs>
<clipPath id="clip0_4707_264">
<rect width="158" height="40.4943" fill="white" transform="translate(60 46.2352)"/>
</clipPath>
</defs>
</svg>
