<?xml version="1.0"?>
<svg xmlns="http://www.w3.org/2000/svg" width="280" height="150" viewBox="0 0 280 150" fill="none">
<g clip-path="url(#clip0_18605_3080)">
<path d="M243.774 85.4534C239.781 85.4534 237.462 83.6985 237.318 80.4991H241.141C241.311 81.8309 241.962 82.5955 243.745 82.5955C245.331 82.5955 246.067 82.0001 246.067 80.9817C246.067 79.9633 245.19 79.5371 243.065 79.2269C239.13 78.6315 237.603 77.5003 237.603 74.6143C237.603 71.5277 240.433 70.0016 243.463 70.0016C246.747 70.0016 249.21 71.1893 249.577 74.5861H245.81C245.585 73.3702 244.905 72.8031 243.488 72.8031C242.157 72.8031 241.392 73.4266 241.392 74.3322C241.392 75.2661 242.1 75.6327 244.25 75.946C247.957 76.485 249.997 77.4188 249.997 80.5869C250 83.7832 247.678 85.4534 243.774 85.4534ZM229.337 85.4534C225.345 85.4534 223.026 83.6985 222.882 80.4991H226.705C226.874 81.8309 227.526 82.5955 229.309 82.5955C230.894 82.5955 231.631 82.0001 231.631 80.9817C231.631 79.9633 230.753 79.5371 228.629 79.2269C224.693 78.6315 223.167 77.5003 223.167 74.6143C223.167 71.5277 225.997 70.0016 229.027 70.0016C232.311 70.0016 234.774 71.1893 235.14 74.5861H231.374C231.148 73.3702 230.468 72.8031 229.052 72.8031C227.72 72.8031 226.956 73.4266 226.956 74.3322C226.956 75.2661 227.664 75.6327 229.813 75.946C233.52 76.485 235.56 77.4188 235.56 80.5869C235.564 83.7832 233.242 85.4534 229.337 85.4534ZM210.072 76.1403H216.696C216.555 73.9029 215.421 72.8281 213.469 72.8281C211.629 72.8281 210.385 74.044 210.072 76.1403ZM213.585 85.4534C209.113 85.4534 205.857 82.6519 205.857 77.9233V77.6977C205.857 73.0255 209.169 69.9985 213.472 69.9985C217.295 69.9985 220.691 72.2359 220.691 77.5285V78.6597H210.018C210.131 81.1227 211.463 82.5391 213.697 82.5391C215.593 82.5391 216.527 81.7181 216.784 80.4741H220.663C220.178 83.6703 217.63 85.4534 213.585 85.4534ZM189.509 85.1431V70.3369H193.614V72.6871C194.351 71.2143 195.964 69.9985 198.427 69.9985C201.342 69.9985 203.41 71.7533 203.41 75.7173V85.1431H199.305V76.3127C199.305 74.304 198.512 73.3389 196.701 73.3389C194.946 73.3389 193.614 74.4137 193.614 76.5947V85.1431H189.509ZM181.923 70.3369H186V85.1431H181.923V70.3369ZM183.931 68.3283C182.628 68.3283 181.609 67.3663 181.609 66.0909C181.609 64.8155 182.628 63.8535 183.931 63.8535C185.263 63.8535 186.282 64.8155 186.282 66.0909C186.282 67.3663 185.263 68.3283 183.931 68.3283ZM172.992 85.4534C169 85.4534 166.678 83.6985 166.537 80.4991H170.36C170.529 81.8309 171.181 82.5955 172.964 82.5955C174.549 82.5955 175.286 82.0001 175.286 80.9817C175.286 79.9633 174.408 79.5371 172.284 79.2269C168.348 78.6315 166.819 77.5003 166.819 74.6143C166.819 71.5277 169.648 70.0016 172.679 70.0016C175.963 70.0016 178.426 71.1893 178.792 74.5861H175.029C174.803 73.3702 174.123 72.8031 172.707 72.8031C171.375 72.8031 170.614 73.4266 170.614 74.3322C170.614 75.2661 171.322 75.6327 173.471 75.946C177.178 76.485 179.218 77.4188 179.218 80.5869C179.218 83.7832 176.896 85.4534 172.992 85.4534ZM155.228 85.4534C152.342 85.4534 150.189 83.7549 150.189 79.8756V70.3369H154.266V79.3115C154.266 81.3201 155.087 82.2853 156.841 82.2853C158.568 82.2853 159.928 81.2105 159.928 79.0295V70.34H164.005V85.1463H159.928V82.8243C159.163 84.3221 157.662 85.4534 155.228 85.4534ZM134.916 81.9719H139.5C141.766 81.9719 142.784 80.9535 142.784 79.1141V79.0013C142.784 77.1337 141.766 76.1717 139.275 76.1717H134.916V81.9719ZM134.916 73.223H139.105C141.315 73.223 142.192 72.4302 142.192 70.6189V70.5061C142.192 68.8077 141.23 68.0431 139.077 68.0431H134.916V73.223ZM130.441 85.1431V64.9033H139.839C144.254 64.9033 146.548 66.7145 146.548 70.1677V70.2805C146.548 72.4051 145.529 73.9593 143.264 74.6111C145.896 75.1501 147.312 76.648 147.312 79.3679V79.4807C147.312 83.1878 144.877 85.1431 140.208 85.1431H130.441Z" fill="white"/>
<path d="M199.383 54.2679C201.194 54.2679 202.582 53.2777 202.582 51.6357V50.3885H200.997C198.618 50.3885 197.23 50.8993 197.23 52.4849C197.23 53.5597 197.882 54.2679 199.383 54.2679ZM198.164 57.1258C195.475 57.1258 193.21 55.8222 193.21 52.7105C193.21 49.2573 196.381 47.9538 200.909 47.9538H202.579V47.3584C202.579 45.6036 202.04 44.6415 200.173 44.6415C198.559 44.6415 197.823 45.4625 197.653 46.7348H193.774C194.028 43.2252 196.804 41.6678 200.427 41.6678C204.049 41.6678 206.625 43.1406 206.625 47.161V56.8124H202.633V55.0294C201.786 56.2202 200.486 57.1258 198.164 57.1258ZM182.418 56.8155L177.012 42.0093H181.399L184.937 52.5977L188.447 42.0093H192.411L187.034 56.8155H182.418ZM156.158 54.2679C157.97 54.2679 159.358 53.2777 159.358 51.6357V50.3885H157.772C155.394 50.3885 154.009 50.8993 154.009 52.4849C154.006 53.5597 154.657 54.2679 156.158 54.2679ZM154.939 57.1258C152.251 57.1258 149.985 55.8222 149.985 52.7105C149.985 49.2573 153.156 47.9538 157.684 47.9538H159.355V47.3584C159.355 45.6036 158.816 44.6415 156.948 44.6415C155.334 44.6415 154.598 45.4625 154.429 46.7348H150.549C150.803 43.2252 153.579 41.6678 157.202 41.6678C160.824 41.6678 163.4 43.1406 163.4 47.161V56.8124H159.408V55.0294C158.565 56.2202 157.261 57.1258 154.939 57.1258ZM130.441 56.8155V36.5757H135.025V44.8421H142.471V36.5757H147.055V56.8155H142.471V48.4645H135.025V56.8155H130.441Z" fill="white"/>
<path d="M182.418 56.8281H187.037L192.42 42.0125H188.453L184.94 52.6103L181.399 42.0125H177.009L182.418 56.8281Z" fill="white"/>
<path d="M175.524 41.8025C173.283 41.9059 171.905 42.94 171.005 44.8452V42.0124H166.897V56.8312H171.005V49.4046C171.005 46.6564 172.66 45.6443 175.524 45.6098V41.8025Z" fill="white"/>
<path d="M218.733 41.8025C216.499 41.909 215.123 42.9431 214.227 44.8452V42.0124H210.119V56.8312H214.227V49.4046C214.227 46.6627 215.878 45.6474 218.733 45.6098V41.8025Z" fill="white"/>
<path d="M227.632 53.9391C225.592 53.9391 224.176 52.4945 224.176 49.5458V49.3201C224.176 46.3746 225.451 44.814 227.745 44.814C229.983 44.814 231.286 46.315 231.286 49.2637V49.4894C231.289 52.4945 229.788 53.9391 227.632 53.9391ZM226.417 57.1416C228.597 57.1416 230.412 55.8662 231.176 54.3652V56.8314H235.256V35.2942H231.176V44.2187C230.355 42.7177 228.883 41.6679 226.501 41.6679C222.788 41.6679 219.983 44.5289 219.983 49.4047V49.6304C219.983 54.5626 222.816 57.1416 226.417 57.1416Z" fill="white"/>
<path d="M218.448 91.9119H222.525V113.424H218.448V91.9119ZM208.185 110.623C210.479 110.623 211.808 108.924 211.808 106.123V105.925C211.808 103.096 210.476 101.397 208.185 101.397C205.92 101.397 204.563 103.039 204.563 105.869V106.094C204.563 108.924 205.867 110.623 208.185 110.623ZM208.157 113.734C203.742 113.734 200.373 110.789 200.373 106.176V105.95C200.373 101.306 203.742 98.2793 208.185 98.2793C212.629 98.2793 215.969 101.25 215.969 105.866V106.091C215.972 110.764 212.604 113.734 208.157 113.734ZM190.691 110.623C192.984 110.623 194.313 108.924 194.313 106.123V105.925C194.313 103.096 192.981 101.397 190.691 101.397C188.425 101.397 187.068 103.039 187.068 105.869V106.094C187.068 108.924 188.372 110.623 190.691 110.623ZM190.662 113.734C186.247 113.734 182.878 110.789 182.878 106.176V105.95C182.878 101.306 186.247 98.2793 190.691 98.2793C195.134 98.2793 198.537 101.25 198.537 105.866V106.091C198.54 110.764 195.109 113.734 190.662 113.734ZM166.672 113.424V91.9119H170.777V100.971C171.513 99.4983 173.127 98.2825 175.59 98.2825C178.504 98.2825 180.572 100.037 180.572 104.001V113.427H176.467V104.597C176.467 102.588 175.674 101.626 173.863 101.626C172.108 101.626 170.777 102.701 170.777 104.882V113.43H166.672V113.424ZM157.127 113.734C152.796 113.734 149.512 111.046 149.512 106.204V105.979C149.512 101.194 152.937 98.2793 157.155 98.2793C160.58 98.2793 163.751 99.7803 164.118 104.026H160.238C159.956 102.3 158.907 101.507 157.236 101.507C155.112 101.507 153.699 103.093 153.699 105.922V106.148C153.699 109.122 155.03 110.648 157.321 110.648C158.963 110.648 160.292 109.686 160.492 107.79H164.199C163.977 111.303 161.429 113.734 157.127 113.734ZM139.09 113.706C133.117 113.706 130.428 111.102 130.087 107.11H134.502C134.784 108.949 135.662 110.366 139.087 110.366C141.775 110.366 142.91 109.375 142.91 107.677C142.91 105.922 141.835 105.411 138.382 104.932C132.976 104.167 130.541 102.695 130.541 98.8465C130.541 95.4215 133.515 92.9021 138.438 92.9021C143.392 92.9021 146.363 94.8543 146.789 98.8747H142.515C142.12 97.1199 140.845 96.2707 138.466 96.2707C135.947 96.2707 134.9 97.1199 134.9 98.5363C134.872 99.9809 135.721 100.717 139.315 101.168C144.523 101.82 147.328 103.064 147.328 107.31C147.328 110.989 144.611 113.706 139.09 113.706Z" fill="white"/>
<path d="M114.71 28.2656H112.94V121.734H114.71V28.2656Z" fill="white"/>
<path d="M63.6015 116.207L62.9748 115.806C41.7102 102.275 30 81.7372 30 57.9783V36.5728H97.203V57.9783C97.203 81.7372 85.4928 102.275 64.2282 115.809L63.6015 116.207Z" fill="white"/>
<path d="M95.4262 59.147V38.3494H31.7736V59.147H95.4262Z" fill="#A41034"/>
<path d="M83.2398 55.4403C82.8418 55.4403 82.4783 55.2335 82.2683 54.8888L82.2025 54.7822H75.1018V52.5198H74.2213C73.8421 52.5198 73.535 52.2127 73.535 51.8335C73.535 51.4544 73.8421 51.1441 74.2213 51.1441H75.1018V46.2902H74.2213C73.8421 46.2902 73.535 45.98 73.535 45.6008C73.535 45.2217 73.8421 44.9114 74.2213 44.9114H75.1018V42.8245H81.0776C81.886 42.8245 82.6162 43.2632 82.9859 43.9682L83.1865 44.3505L83.387 43.9714C83.7568 43.2663 84.4901 42.8276 85.2985 42.8276H91.1928V44.9146H92.0765C92.4556 44.9146 92.7627 45.2248 92.7627 45.604C92.7627 45.9831 92.4556 46.2933 92.0765 46.2933H91.1928V51.1473H92.0765C92.4556 51.1473 92.7627 51.4575 92.7627 51.8367C92.7627 52.2158 92.4556 52.5229 92.0765 52.5229H91.1928V54.7822H84.277L84.2112 54.8888C83.9981 55.2335 83.6377 55.4403 83.2398 55.4403Z" fill="white"/>
<path d="M63.6015 55.4403C63.2036 55.4403 62.8401 55.2335 62.6301 54.8888L62.5643 54.7822H55.5952V52.5198H54.7147C54.3355 52.5198 54.0284 52.2127 54.0284 51.8335C54.0284 51.4544 54.3355 51.1441 54.7147 51.1441H55.5952V46.2902H54.7147C54.3355 46.2902 54.0284 45.98 54.0284 45.6008C54.0284 45.2217 54.3355 44.9114 54.7147 44.9114H55.5952V42.8245H61.4393C62.2791 42.8245 63.0469 43.3196 63.3978 44.0842L63.6015 44.5323L63.8052 44.0842C64.1562 43.3196 64.9239 42.8245 65.7637 42.8245H70.4139V44.9114H71.2945C71.6737 44.9114 71.9807 45.2217 71.9807 45.6008C71.9807 45.98 71.6737 46.2902 71.2945 46.2902H70.4139V51.1441H71.2945C71.6737 51.1441 71.9807 51.4544 71.9807 51.8335C71.9807 52.2127 71.6737 52.5198 71.2945 52.5198H70.4139V54.7791H64.6387L64.5729 54.8857C64.363 55.2335 63.9995 55.4403 63.6015 55.4403Z" fill="white"/>
<path d="M43.4494 55.4401C43.0514 55.4401 42.6879 55.2332 42.478 54.8885L42.4122 54.782H35.9507V52.5195H35.0702C34.691 52.5195 34.3839 52.2125 34.3839 51.8333C34.3839 51.4541 34.691 51.1439 35.0702 51.1439H35.9507V46.29H35.0702C34.691 46.29 34.3839 45.9797 34.3839 45.6006C34.3839 45.2214 34.691 44.9112 35.0702 44.9112H35.9507V42.8242H41.2904C42.1302 42.8242 42.8979 43.3193 43.2457 44.0839L43.4494 44.532L43.6531 44.0839C44.004 43.3193 44.7718 42.8242 45.6116 42.8242H50.9512V44.9112H51.8318C52.2109 44.9112 52.518 45.2214 52.518 45.6006C52.518 45.9797 52.2109 46.29 51.8318 46.29H50.9512V51.1439H51.8318C52.2109 51.1439 52.518 51.4541 52.518 51.8333C52.518 52.2125 52.2109 52.5195 51.8318 52.5195H50.9512V54.7789H44.4866L44.4208 54.8854C44.2109 55.2332 43.8474 55.4401 43.4494 55.4401Z" fill="white"/>
<path d="M76.6153 60.0278C76.6153 61.933 75.0705 63.4747 73.1684 63.4747C72.3599 63.4747 71.6204 63.1958 71.0313 62.7289C71.4982 63.318 71.7802 64.0607 71.7802 64.8723C71.7802 66.7775 70.2353 68.3192 68.3332 68.3192C67.5028 68.3192 66.7414 68.0247 66.146 67.5358C66.6004 68.0968 66.873 68.8112 66.873 69.5915C66.873 71.3996 65.4065 72.8629 63.6015 72.8629C61.7934 72.8629 60.33 71.3964 60.33 69.5915C60.33 68.8143 60.6027 68.0999 61.057 67.5358C60.4617 68.0247 59.7002 68.3192 58.8698 68.3192C56.9646 68.3192 55.4228 66.7744 55.4228 64.8723C55.4228 64.0607 55.7049 63.318 56.1718 62.7289C55.5827 63.1927 54.8431 63.4747 54.0347 63.4747C52.1294 63.4747 50.5877 61.9298 50.5877 60.0278C50.5877 59.7238 50.6284 59.4292 50.7037 59.1472H33.635C34.8258 59.6893 35.6562 60.8895 35.6562 62.2839C35.6562 63.0924 35.3773 63.8319 34.9104 64.421C35.4995 63.9541 36.2421 63.6721 37.0537 63.6721C38.959 63.6721 40.5007 65.217 40.5007 67.1191C40.5007 67.9275 40.2218 68.6671 39.7549 69.2562C40.344 68.7893 41.0867 68.5073 41.8983 68.5073C43.8035 68.5073 45.3452 70.0521 45.3452 71.9542C45.3452 72.7627 45.0663 73.5022 44.5994 74.0913C45.1885 73.6244 45.9312 73.3424 46.7428 73.3424C48.648 73.3424 50.1897 74.8872 50.1897 76.7893C50.1897 77.6197 49.8952 78.3812 49.4063 78.9766C49.9673 78.5222 50.6817 78.2496 51.462 78.2496C53.2701 78.2496 54.7335 79.7161 54.7335 81.5211C54.7335 83.3291 53.2669 84.7925 51.462 84.7925C50.6849 84.7925 49.9704 84.5199 49.4063 84.0655C49.8952 84.6609 50.1897 85.4224 50.1897 86.2528C50.1897 88.158 48.6449 89.6997 46.7428 89.6997C45.9312 89.6997 45.1885 89.4177 44.5994 88.9508C45.0632 89.5399 45.3452 90.2794 45.3452 91.0879C45.3452 92.639 44.3205 93.9489 42.9104 94.3813C45.176 97.6779 47.7737 100.799 50.688 103.729C50.619 103.456 50.5783 103.174 50.5783 102.88C50.5783 100.974 52.1232 99.4327 54.0253 99.4327C54.8337 99.4327 55.5733 99.7116 56.1624 100.178C55.6955 99.5893 55.4134 98.8467 55.4134 98.0351C55.4134 96.1299 56.9583 94.5881 58.8604 94.5881C59.6908 94.5881 60.4523 94.8827 61.0476 95.3715C60.5933 94.8106 60.3206 94.0962 60.3206 93.3159C60.3206 91.5078 61.7872 90.0444 63.5921 90.0444C65.4002 90.0444 66.8636 91.5109 66.8636 93.3159C66.8636 94.093 66.591 94.8075 66.1366 95.3715C66.732 94.8827 67.4934 94.5881 68.3238 94.5881C70.2291 94.5881 71.7708 96.133 71.7708 98.0351C71.7708 98.8467 71.4888 99.5893 71.0219 100.178C71.611 99.7147 72.3505 99.4327 73.159 99.4327C75.0642 99.4327 76.6059 100.978 76.6059 102.88C76.6059 103.174 76.5652 103.456 76.4962 103.729C79.4136 100.799 82.0114 97.6747 84.2738 94.3813C82.8637 93.9489 81.839 92.639 81.839 91.0879C81.839 90.2794 82.1179 89.5399 82.5848 88.9508C81.9957 89.4177 81.253 89.6997 80.4414 89.6997C78.5362 89.6997 76.9945 88.1549 76.9945 86.2528C76.9945 85.4224 77.289 84.6609 77.7779 84.0655C77.217 84.5199 76.5025 84.7925 75.7222 84.7925C73.9142 84.7925 72.4508 83.326 72.4508 81.5211C72.4508 79.713 73.9173 78.2496 75.7222 78.2496C76.4994 78.2496 77.2138 78.5222 77.7779 78.9766C77.289 78.3812 76.9945 77.6197 76.9945 76.7893C76.9945 74.8841 78.5393 73.3424 80.4414 73.3424C81.253 73.3424 81.9957 73.6244 82.5848 74.0913C82.121 73.5022 81.839 72.7627 81.839 71.9542C81.839 70.049 83.3839 68.5073 85.286 68.5073C86.0976 68.5073 86.8402 68.7893 87.4293 69.2562C86.9656 68.6671 86.6835 67.9275 86.6835 67.1191C86.6835 65.2138 88.2284 63.6721 90.1305 63.6721C90.9421 63.6721 91.6847 63.9541 92.2739 64.421C91.8101 63.8319 91.5281 63.0924 91.5281 62.2839C91.5281 60.8895 92.3585 59.6893 93.5492 59.1472H76.4837C76.5746 59.4292 76.6153 59.7238 76.6153 60.0278ZM52.0605 65.4426C52.1451 65.311 52.3958 65.3549 52.5681 65.3549C52.8251 65.3549 52.9567 65.3361 53.035 65.4833C53.1322 65.6651 52.9755 65.8562 52.8502 66.2417C52.7499 66.5519 52.7217 66.8245 52.6026 66.8245C52.4491 66.8245 52.3237 66.5582 52.1984 66.2229C52.0887 65.922 51.9634 65.593 52.0605 65.4426ZM48.3503 65.4802C48.4287 65.3329 48.5603 65.3517 48.8172 65.3517C48.9927 65.3517 49.2434 65.311 49.3249 65.4395C49.422 65.593 49.2967 65.9189 49.1807 66.2197C49.0554 66.5519 48.9332 66.8214 48.7765 66.8214C48.6574 66.8214 48.6292 66.5456 48.5289 66.2385C48.413 65.8562 48.2563 65.662 48.3503 65.4802ZM53.8623 69.8986C53.6743 69.8986 53.2356 69.4818 52.8596 69.0588C52.5055 68.6608 52.2579 68.0905 52.1106 68.2722C51.9665 68.4508 52.3112 69.0337 52.612 69.4724C53.057 70.1211 53.4643 70.331 53.4643 70.6444C53.4643 70.8762 53.2293 71.1332 53.0319 71.315C52.8314 71.503 52.6183 71.6471 52.4052 71.6471C52.1451 71.6471 51.8067 71.0361 51.5685 70.0208C51.4118 69.3471 51.462 68.9366 51.2802 68.9366C51.1424 68.9366 51.0578 69.2624 51.086 69.8516C51.1142 70.4908 51.1956 70.8512 51.4056 71.4873C51.5027 71.7787 51.6406 71.9981 51.4651 72.1673C51.2959 72.3271 51.0107 72.4023 50.6911 72.4023C50.3715 72.4023 50.0863 72.3302 49.9171 72.1673C49.7416 71.9981 49.8795 71.7787 49.9767 71.4873C50.1866 70.8512 50.2681 70.4908 50.2963 69.8516C50.3245 69.2624 50.2399 68.9366 50.102 68.9366C49.9203 68.9366 49.9704 69.3471 49.8137 70.0208C49.5787 71.0329 49.2371 71.6471 48.977 71.6471C48.764 71.6471 48.5509 71.503 48.3503 71.315C48.1529 71.1301 47.9179 70.8731 47.9179 70.6444C47.9179 70.331 48.3253 70.1242 48.7702 69.4724C49.0711 69.0337 49.4189 68.4508 49.2716 68.2722C49.1243 68.0905 48.8768 68.6608 48.5227 69.0588C48.1466 69.4818 47.7079 69.8986 47.5199 69.8986C47.3037 69.8986 46.9245 69.2123 46.9245 68.7172C46.9245 68.2221 47.1376 67.9087 47.5669 67.9087C49.4001 67.9087 49.6821 66.0913 49.8513 65.3643C49.9861 64.7908 50.1114 64.2769 50.6911 64.2769C51.2708 64.2769 51.3962 64.7908 51.5309 65.3643C51.7001 66.0913 51.9822 67.9087 53.8153 67.9087C54.2415 67.9087 54.4577 68.2221 54.4577 68.7172C54.4577 69.2154 54.0785 69.8986 53.8623 69.8986ZM52.0605 90.9908C52.1451 90.8592 52.3958 90.903 52.5681 90.903C52.8251 90.903 52.9567 90.8842 53.035 91.0315C53.1322 91.2133 52.9755 91.4044 52.8502 91.7898C52.7499 92.1001 52.7217 92.3727 52.6026 92.3727C52.4491 92.3727 52.3237 92.1063 52.1984 91.771C52.0887 91.4702 51.9634 91.1412 52.0605 90.9908ZM48.3503 91.0284C48.4287 90.8811 48.5603 90.8999 48.8172 90.8999C48.9927 90.8999 49.2434 90.8592 49.3249 90.9876C49.422 91.1412 49.2967 91.4671 49.1807 91.7679C49.0554 92.1001 48.9332 92.3695 48.7765 92.3695C48.6574 92.3695 48.6292 92.0938 48.5289 91.7867C48.413 91.4013 48.2563 91.2101 48.3503 91.0284ZM53.8623 95.4467C53.6743 95.4467 53.2356 95.03 52.8596 94.6069C52.5055 94.209 52.2579 93.6386 52.1106 93.8204C51.9665 93.999 52.3112 94.5819 52.612 95.0206C53.057 95.6692 53.4643 95.8792 53.4643 96.1925C53.4643 96.4244 53.2293 96.6814 53.0319 96.8631C52.8314 97.0511 52.6183 97.1953 52.4052 97.1953C52.1451 97.1953 51.8067 96.5842 51.5685 95.5689C51.4118 94.8952 51.462 94.4847 51.2802 94.4847C51.1424 94.4847 51.0578 94.8106 51.086 95.3997C51.1142 96.039 51.1956 96.3993 51.4056 97.0355C51.5027 97.3269 51.6406 97.5462 51.4651 97.7155C51.2959 97.8753 51.0107 97.9505 50.6911 97.9505C50.3715 97.9505 50.0863 97.8784 49.9171 97.7155C49.7416 97.5462 49.8795 97.3269 49.9767 97.0355C50.1866 96.3993 50.2681 96.039 50.2963 95.3997C50.3245 94.8106 50.2399 94.4847 50.102 94.4847C49.9203 94.4847 49.9704 94.8952 49.8137 95.5689C49.5787 96.5811 49.2371 97.1953 48.977 97.1953C48.764 97.1953 48.5509 97.0511 48.3503 96.8631C48.1529 96.6782 47.9179 96.4213 47.9179 96.1925C47.9179 95.8792 48.3253 95.6724 48.7702 95.0206C49.0711 94.5819 49.4189 93.999 49.2716 93.8204C49.1243 93.6386 48.8768 94.209 48.5227 94.6069C48.1466 95.03 47.7079 95.4467 47.5199 95.4467C47.3037 95.4467 46.9245 94.7605 46.9245 94.2654C46.9245 93.7703 47.1376 93.4569 47.5669 93.4569C49.4001 93.4569 49.6821 91.6394 49.8513 90.9124C49.9861 90.339 50.1114 89.8251 50.6911 89.8251C51.2708 89.8251 51.3962 90.339 51.5309 90.9124C51.7001 91.6394 51.9822 93.4569 53.8153 93.4569C54.2415 93.4569 54.4577 93.7703 54.4577 94.2654C54.4577 94.7605 54.0785 95.4467 53.8623 95.4467ZM65.0367 77.814C65.1244 77.6761 65.3877 77.72 65.5725 77.72C65.842 77.72 65.9799 77.7012 66.0645 77.8548C66.1648 78.0459 66.0018 78.2464 65.8702 78.6507C65.7668 78.9766 65.7355 79.2649 65.6101 79.2649C65.4472 79.2649 65.3187 78.9828 65.1871 78.635C65.0649 78.3185 64.9333 77.9738 65.0367 77.814ZM61.1416 77.8579C61.2231 77.7012 61.3641 77.7231 61.6336 77.7231C61.8185 77.7231 62.0817 77.6793 62.1695 77.8172C62.2697 77.977 62.1381 78.3217 62.0191 78.6382C61.8874 78.9891 61.759 79.268 61.596 79.268C61.4707 79.268 61.4393 78.9797 61.3359 78.6538C61.2043 78.2496 61.0382 78.0459 61.1416 77.8579ZM66.9294 82.4956C66.732 82.4956 66.2713 82.0569 65.8765 81.6151C65.5036 81.1952 65.2435 80.5998 65.09 80.7878C64.9364 80.9758 65.2999 81.5869 65.6164 82.0506C66.0833 82.7338 66.5126 82.9531 66.5126 83.2821C66.5126 83.5234 66.2651 83.7929 66.0582 83.9872C65.8483 84.1846 65.6227 84.335 65.4002 84.335C65.1276 84.335 64.7703 83.6926 64.5228 82.6272C64.3567 81.9222 64.4131 81.4897 64.222 81.4897C64.0778 81.4897 63.9901 81.8344 64.0183 82.4517C64.0496 83.1223 64.1342 83.5015 64.3536 84.1689C64.4538 84.476 64.6011 84.7048 64.4162 84.8834C64.2376 85.0526 63.9368 85.1278 63.6015 85.1278C63.2662 85.1278 62.9654 85.0526 62.7868 84.8834C62.6019 84.7079 62.7492 84.476 62.8495 84.1689C63.0688 83.5015 63.1534 83.1223 63.1847 82.4517C63.2129 81.8344 63.1252 81.4897 62.9811 81.4897C62.7899 81.4897 62.8432 81.919 62.6802 82.6272C62.4327 83.6926 62.0755 84.335 61.8028 84.335C61.5803 84.335 61.3579 84.1815 61.1448 83.9872C60.938 83.7929 60.6904 83.5234 60.6904 83.2821C60.6904 82.9531 61.1166 82.7338 61.5866 82.0506C61.9031 81.59 62.2666 80.9789 62.1131 80.7878C61.9595 80.5966 61.6994 81.1952 61.3265 81.6151C60.9317 82.06 60.4711 82.4956 60.2736 82.4956C60.048 82.4956 59.6501 81.7749 59.6501 81.2547C59.6501 80.7345 59.8757 80.4055 60.3238 80.4055C62.2478 80.4055 62.5455 78.4971 62.721 77.7357C62.862 77.1309 62.9936 76.5919 63.6015 76.5919C64.2094 76.5919 64.3442 77.1309 64.4821 77.7357C64.6607 78.4971 64.9552 80.4055 66.8792 80.4055C67.3274 80.4055 67.553 80.7345 67.553 81.2547C67.553 81.7749 67.155 82.4956 66.9294 82.4956ZM77.8656 90.9908C77.9502 90.8592 78.2009 90.903 78.3733 90.903C78.6302 90.903 78.7618 90.8842 78.8402 91.0315C78.9373 91.2133 78.7806 91.4044 78.6553 91.7898C78.555 92.1001 78.5268 92.3727 78.4077 92.3727C78.2542 92.3727 78.1288 92.1063 78.0035 91.771C77.8938 91.4702 77.7685 91.1412 77.8656 90.9908ZM74.1554 91.0284C74.2338 90.8811 74.3654 90.8999 74.6223 90.8999C74.7978 90.8999 75.0485 90.8592 75.13 90.9876C75.2271 91.1412 75.1018 91.4671 74.9858 91.7679C74.8605 92.1001 74.7383 92.3695 74.5816 92.3695C74.4625 92.3695 74.4343 92.0938 74.3341 91.7867C74.2181 91.4013 74.0583 91.2101 74.1554 91.0284ZM73.3752 93.4569C75.2083 93.4569 75.4904 91.6394 75.6596 90.9124C75.7943 90.339 75.9197 89.8251 76.4994 89.8251C77.0791 89.8251 77.2044 90.339 77.3392 90.9124C77.5084 91.6394 77.7904 93.4569 79.6236 93.4569C80.0497 93.4569 80.2659 93.7703 80.2659 94.2654C80.2659 94.7605 79.8868 95.4467 79.6706 95.4467C79.4825 95.4467 79.0438 95.03 78.6678 94.6069C78.3137 94.209 78.0662 93.6386 77.9189 93.8204C77.7747 93.999 78.1194 94.5819 78.4203 95.0206C78.8652 95.6692 79.2726 95.8792 79.2726 96.1925C79.2726 96.4244 79.0376 96.6814 78.8402 96.8631C78.6396 97.0511 78.4265 97.1953 78.2134 97.1953C77.9534 97.1953 77.6149 96.5842 77.3768 95.5689C77.2201 94.8952 77.2702 94.4847 77.0885 94.4847C76.9506 94.4847 76.866 94.8106 76.8942 95.3997C76.9224 96.039 77.0039 96.3993 77.2138 97.0355C77.311 97.3269 77.4488 97.5462 77.2734 97.7155C77.1042 97.8753 76.819 97.9505 76.4994 97.9505C76.1797 97.9505 75.8946 97.8784 75.7254 97.7155C75.5499 97.5462 75.6878 97.3269 75.7849 97.0355C75.9949 96.3993 76.0763 96.039 76.1045 95.3997C76.1327 94.8106 76.0481 94.4847 75.9103 94.4847C75.7285 94.4847 75.7786 94.8952 75.622 95.5689C75.3869 96.5811 75.0454 97.1953 74.7853 97.1953C74.5722 97.1953 74.3591 97.0511 74.1586 96.8631C73.9612 96.6782 73.7261 96.4213 73.7261 96.1925C73.7261 95.8792 74.1335 95.6724 74.5785 95.0206C74.8793 94.5819 75.2271 93.999 75.0799 93.8204C74.9326 93.6386 74.685 94.209 74.3309 94.6069C73.9549 95.03 73.5162 95.4467 73.3282 95.4467C73.112 95.4467 72.7328 94.7605 72.7328 94.2654C72.7359 93.7703 72.949 93.4569 73.3752 93.4569ZM74.1554 65.4802C74.2338 65.3329 74.3654 65.3517 74.6223 65.3517C74.7978 65.3517 75.0485 65.311 75.13 65.4395C75.2271 65.593 75.1018 65.9189 74.9858 66.2197C74.8605 66.5519 74.7383 66.8214 74.5816 66.8214C74.4625 66.8214 74.4343 66.5456 74.3341 66.2385C74.2181 65.8562 74.0583 65.662 74.1554 65.4802ZM77.8656 65.4426C77.9502 65.311 78.2009 65.3549 78.3733 65.3549C78.6302 65.3549 78.7618 65.3361 78.8402 65.4833C78.9373 65.6651 78.7806 65.8562 78.6553 66.2417C78.555 66.5519 78.5268 66.8245 78.4077 66.8245C78.2542 66.8245 78.1288 66.5582 78.0035 66.2229C77.8938 65.922 77.7685 65.593 77.8656 65.4426ZM77.3392 65.3643C77.5084 66.0913 77.7904 67.9087 79.6236 67.9087C80.0497 67.9087 80.2659 68.2221 80.2659 68.7172C80.2659 69.2123 79.8868 69.8986 79.6706 69.8986C79.4825 69.8986 79.0438 69.4818 78.6678 69.0588C78.3137 68.6608 78.0662 68.0905 77.9189 68.2722C77.7747 68.4508 78.1194 69.0337 78.4203 69.4724C78.8652 70.1211 79.2726 70.331 79.2726 70.6444C79.2726 70.8762 79.0376 71.1332 78.8402 71.315C78.6396 71.503 78.4265 71.6471 78.2134 71.6471C77.9534 71.6471 77.6149 71.0361 77.3768 70.0208C77.2201 69.3471 77.2702 68.9366 77.0885 68.9366C76.9506 68.9366 76.866 69.2624 76.8942 69.8516C76.9224 70.4908 77.0039 70.8512 77.2138 71.4873C77.311 71.7787 77.4488 71.9981 77.2734 72.1673C77.1042 72.3271 76.819 72.4023 76.4994 72.4023C76.1797 72.4023 75.8946 72.3302 75.7254 72.1673C75.5499 71.9981 75.6878 71.7787 75.7849 71.4873C75.9949 70.8512 76.0763 70.4908 76.1045 69.8516C76.1327 69.2624 76.0481 68.9366 75.9103 68.9366C75.7285 68.9366 75.7786 69.3471 75.622 70.0208C75.3869 71.0329 75.0454 71.6471 74.7853 71.6471C74.5722 71.6471 74.3591 71.503 74.1586 71.315C73.9612 71.1301 73.7261 70.8731 73.7261 70.6444C73.7261 70.331 74.1335 70.1242 74.5785 69.4724C74.8793 69.0337 75.2271 68.4508 75.0799 68.2722C74.9326 68.0905 74.685 68.6608 74.3309 69.0588C73.9549 69.4818 73.5162 69.8986 73.3282 69.8986C73.112 69.8986 72.7328 69.2123 72.7328 68.7172C72.7328 68.2221 72.9459 67.9087 73.3752 67.9087C75.2083 67.9087 75.4904 66.0913 75.6596 65.3643C75.7943 64.7908 75.9197 64.2769 76.4994 64.2769C77.0791 64.2769 77.2044 64.7908 77.3392 65.3643Z" fill="black"/>
<path d="M85.358 50.6462C85.4676 50.6462 85.4457 50.5428 85.7371 50.5428C86.0285 50.5428 86.32 50.7464 86.6803 50.7464C87.5107 50.7464 88.2534 49.938 88.2534 49.1546C88.2534 48.437 88.0748 48.2114 87.3854 47.6943C86.696 47.1773 86.0568 46.9673 86.0568 46.3281C86.0568 46.0993 86.1821 45.5039 86.6803 45.5039C87.2663 45.5039 87.3697 46.1275 87.5295 46.5913C87.6674 46.9924 87.94 46.8326 87.9306 46.6038C87.9181 46.3782 87.9181 45.739 87.9181 45.5948C87.9181 45.4507 87.7583 45.3159 87.68 45.4225C87.6267 45.4945 87.3697 45.4757 87.3447 45.4569C87.1472 45.3097 86.9561 45.2783 86.5801 45.2783C85.8092 45.2783 85.3329 46.0492 85.3329 46.538C85.3329 47.03 85.5178 47.428 86.3544 48.0515C87.1911 48.6783 87.4167 48.86 87.4167 49.4084C87.4167 49.75 87.2851 50.455 86.6709 50.455C86.063 50.455 85.8343 49.8847 85.6776 49.4335C85.5084 48.9509 85.2013 48.8819 85.2013 49.3677C85.2013 49.6528 85.2013 50.1918 85.1731 50.3767C85.1386 50.5616 85.2546 50.6462 85.358 50.6462Z" fill="black"/>
<path d="M80.5072 45.648C80.6732 45.648 80.9114 45.7388 81.1464 46.3781C81.231 46.6037 81.2843 46.7635 81.4253 46.7635C81.5632 46.7635 81.5788 46.5254 81.5788 46.3781C81.5788 46.2308 81.5632 45.6887 81.5632 45.5665C81.5632 45.3816 81.5506 45.3409 80.9083 45.3816C80.4508 45.4098 80.128 45.4223 79.8648 45.4223C79.5984 45.4223 79.2819 45.4098 78.8213 45.3816C78.182 45.3409 78.1695 45.3816 78.1695 45.5665C78.1695 45.6887 78.1538 46.2308 78.1538 46.3781C78.1538 46.5254 78.1695 46.7635 78.3042 46.7635C78.4484 46.7635 78.5017 46.6037 78.5831 46.3781C78.8213 45.7388 79.0563 45.648 79.2255 45.648C79.3916 45.648 79.4417 45.7796 79.4417 46.1243V49.8156C79.4355 50.2261 79.3916 50.2387 79.2663 50.3452C79.1378 50.4518 79.1691 50.6398 79.3759 50.6241C79.5828 50.6084 79.6611 50.6084 79.8648 50.6084C80.0685 50.6084 80.1499 50.6084 80.3536 50.6241C80.5604 50.6366 80.5918 50.4518 80.4664 50.3452C80.3379 50.2387 80.2941 50.2261 80.2909 49.8156V46.1243C80.2941 45.7796 80.3411 45.648 80.5072 45.648Z" fill="black"/>
<path d="M81.253 50.3576C81.1433 50.4641 81.1464 50.6584 81.3031 50.6428C81.4598 50.6302 81.5193 50.6302 81.6729 50.6302C81.8264 50.6302 81.8828 50.6302 82.0364 50.6428C82.1899 50.6584 82.24 50.4986 82.1617 50.3921C82.0802 50.2887 81.9455 50.273 82.0113 49.8625L82.2494 49.1136C82.3121 48.9475 82.6944 49.007 82.895 49.007C83.0924 49.007 83.5436 48.9318 83.6282 49.1668L83.7943 49.8594C83.8789 50.2699 83.8413 50.2855 83.7379 50.3889C83.6408 50.4955 83.7034 50.6553 83.8977 50.6396C84.0951 50.6271 84.2267 50.6271 84.4242 50.6271C84.6247 50.6271 84.6466 50.6271 84.8472 50.6396C85.0477 50.6553 85.0195 50.3983 84.9193 50.3294C84.7751 50.2228 84.7689 50.132 84.6717 49.8594L83.5311 45.8233C83.4433 45.488 83.3149 45.2655 83.2365 45.2843C82.989 45.3407 82.6913 45.4065 82.707 45.5726L82.7258 46.0082L81.5695 49.8625C81.4034 50.2605 81.3658 50.2511 81.253 50.3576ZM82.4312 48.3772L82.7383 47.2647C82.92 46.638 83.036 46.6161 83.1739 47.3086L83.4308 48.3709C83.5217 48.6341 83.4935 48.6905 82.9952 48.6905C82.3529 48.6874 82.3121 48.6404 82.4312 48.3772Z" fill="black"/>
<path d="M92.0733 50.9186H91.4184V46.5159H92.0764C92.5778 46.5159 92.9883 46.1054 92.9883 45.6009C92.9883 45.0963 92.5809 44.6858 92.0764 44.6858H91.4184V42.5989H85.2985C84.396 42.5989 83.5875 43.1003 83.1864 43.8617C82.7853 43.1003 81.98 42.5989 81.0775 42.5989H74.873V44.6858H74.2181C73.7136 44.6858 73.3062 45.0963 73.3062 45.6009C73.3062 46.1054 73.7167 46.5159 74.2181 46.5159H74.873V50.9186H74.2181C73.7136 50.9186 73.3062 51.3291 73.3062 51.8336C73.3062 52.3381 73.7167 52.7454 74.2181 52.7454H74.873V55.0048H82.074C82.3153 55.3996 82.7446 55.666 83.2366 55.666C83.7317 55.666 84.161 55.3996 84.3991 55.0048H91.4184V52.7454H92.0764C92.5778 52.7454 92.9883 52.3349 92.9883 51.8336C92.9852 51.3291 92.5778 50.9186 92.0733 50.9186ZM89.1841 43.1097L89.9644 43.9119V53.3847L89.1841 52.689V43.1097ZM77.6744 43.0282H81.0775C81.9643 43.0282 82.7383 43.6142 82.9608 44.454L83.0015 44.6138H83.3713L83.412 44.454C83.6345 43.6142 84.4085 43.0282 85.2953 43.0282H88.7548V52.57L85.3987 52.5637C84.6216 52.5637 84.0764 52.6984 83.6659 53.0024C83.5311 52.9585 83.387 52.9272 83.2366 52.9272C83.0861 52.9272 82.942 52.9585 82.8073 53.0024C82.3968 52.6953 81.8484 52.5637 81.0744 52.5637L77.6744 52.57V43.0282ZM77.2483 52.689L76.468 53.3847V43.9119L77.2451 43.1097L77.2483 52.689ZM75.3023 54.5786V52.3193H74.2212C73.9549 52.3193 73.7355 52.1031 73.7355 51.8336C73.7355 51.5641 73.9549 51.3479 74.2212 51.3479H75.3023V46.0897H74.2212C73.9549 46.0897 73.7355 45.8703 73.7355 45.604C73.7355 45.3345 73.9549 45.1183 74.2212 45.1183H75.3023V43.0313H76.7312L76.045 43.7395V54.0772H81.8985C81.886 54.1493 81.8766 54.2245 81.8766 54.2997C81.8766 54.3968 81.886 54.4909 81.9048 54.5786H75.3023ZM82.0427 53.6479H76.8158L77.5428 52.9993L81.0775 52.993C81.676 52.993 82.0834 53.0839 82.3811 53.2405C82.2432 53.3534 82.1304 53.4912 82.0427 53.6479ZM83.2397 55.2053C82.7383 55.2053 82.3309 54.7979 82.3309 54.2966C82.3309 53.7952 82.7383 53.3878 83.2397 53.3878C83.7411 53.3878 84.1484 53.7952 84.1484 54.2966C84.1484 54.7979 83.7379 55.2053 83.2397 55.2053ZM84.0952 53.2437C84.396 53.0839 84.8033 52.9961 85.3987 52.9961L88.8864 53.0024L89.6165 53.6511H84.4305C84.349 53.4912 84.233 53.3534 84.0952 53.2437ZM92.0733 52.3193H90.9891V54.5786H84.5746C84.5934 54.4877 84.6028 54.3937 84.6028 54.2997C84.6028 54.2245 84.5934 54.1493 84.5809 54.0772H90.3905V43.7395L89.7012 43.0313H90.9859V45.1183H92.0701C92.3365 45.1183 92.5559 45.3376 92.5559 45.604C92.5559 45.8735 92.3396 46.0897 92.0701 46.0897H90.9859V51.3447H92.0701C92.3365 51.3447 92.5559 51.5641 92.5559 51.8304C92.559 52.0999 92.3428 52.3193 92.0733 52.3193Z" fill="black"/>
<path d="M65.2999 50.4644C65.1808 50.5678 65.2121 50.7307 65.4064 50.715C65.6007 50.6994 65.6759 50.6994 65.8733 50.6994C66.0676 50.6994 66.1428 50.6994 66.3402 50.715C66.5345 50.7276 66.5658 50.5678 66.4436 50.4644C66.3245 50.3578 66.2838 50.3453 66.2807 49.9316V46.2403C66.2838 45.8266 66.3245 45.8141 66.4436 45.7076C66.5658 45.601 66.5345 45.4412 66.3402 45.4569C66.1459 45.4694 66.0707 45.4694 65.8733 45.4694C65.6759 45.4694 65.6007 45.4694 65.4064 45.4569C65.2121 45.4412 65.1808 45.6042 65.2999 45.7076C65.4221 45.8141 65.4628 45.8266 65.4659 46.2403V49.9316C65.4628 50.3421 65.4221 50.3578 65.2999 50.4644Z" fill="black"/>
<path d="M71.2945 50.9186H70.6395V46.5159H71.2945C71.799 46.5159 72.2063 46.1054 72.2063 45.6009C72.2063 45.0963 71.7958 44.6858 71.2945 44.6858H70.6395V42.5989H65.7637C64.8048 42.5989 63.9775 43.1692 63.6015 43.9902C63.2255 43.1692 62.3982 42.5989 61.4393 42.5989H55.3696V44.6858H54.7146C54.2101 44.6858 53.8028 45.0963 53.8028 45.6009C53.8028 46.1054 54.2133 46.5159 54.7146 46.5159H55.3696V50.9186H54.7146C54.2101 50.9186 53.8028 51.3291 53.8028 51.8336C53.8028 52.3349 54.2133 52.7454 54.7146 52.7454H55.3696V55.0048H62.4358C62.6771 55.3996 63.1064 55.666 63.5984 55.666C64.0935 55.666 64.5228 55.3996 64.7609 55.0048H70.6333V52.7454H71.2882C71.7927 52.7454 72.2001 52.3349 72.2001 51.8336C72.2063 51.3291 71.7958 50.9186 71.2945 50.9186ZM68.2611 43.1097L69.0414 43.9119V53.3847L68.2611 52.689V43.1097ZM63.8146 44.9773C63.8146 43.9025 64.6889 43.0282 65.7637 43.0282H67.835V52.57L65.7637 52.5668C64.9897 52.5668 64.4444 52.7016 64.0339 53.0087C63.9619 52.9836 63.8929 52.9648 63.8177 52.9554V44.9773H63.8146ZM58.171 43.0282H61.4362C62.511 43.0282 63.3853 43.9025 63.3853 44.9773V52.9523C63.3101 52.9648 63.238 52.9836 63.1691 53.0055C62.7586 52.6984 62.2133 52.5637 61.4362 52.5637L58.171 52.5731V43.0282ZM57.7448 52.689L56.9646 53.3847V43.9119L57.7448 43.1097V52.689ZM55.7957 54.5786V52.3193H54.7146C54.4451 52.3193 54.2289 52.1031 54.2289 51.8336C54.2289 51.5641 54.4483 51.3479 54.7146 51.3479H55.7957V46.0897H54.7146C54.4451 46.0897 54.2289 45.8703 54.2289 45.604C54.2289 45.3376 54.4483 45.1183 54.7146 45.1183H55.7957V43.0313H57.2246L56.5352 43.7395V54.0772H62.2541C62.2415 54.1493 62.2321 54.2245 62.2321 54.2997C62.2321 54.3968 62.2415 54.4909 62.2603 54.5786H55.7957ZM62.4045 53.6479H57.3124L58.0425 52.9993L61.4393 52.993C62.0378 52.993 62.4452 53.0839 62.7429 53.2405C62.605 53.3534 62.4922 53.4912 62.4045 53.6479ZM63.6015 55.2053C63.1001 55.2053 62.6928 54.7979 62.6928 54.2966C62.6928 53.7952 63.1001 53.3878 63.6015 53.3878C64.1029 53.3878 64.5102 53.7952 64.5102 54.2966C64.5102 54.7979 64.0997 55.2053 63.6015 55.2053ZM64.457 53.2437C64.7578 53.0839 65.1652 52.9961 65.7605 52.9961L67.9635 53.0024L68.6936 53.6511H64.7923C64.7108 53.4912 64.5948 53.3534 64.457 53.2437ZM71.2945 52.3193H70.2134V54.5786H64.9395C64.9583 54.4877 64.9677 54.3937 64.9677 54.2997C64.9677 54.2245 64.9583 54.1493 64.9458 54.0772H69.4707V43.7395L68.7813 43.0313H70.2102V45.1183H71.2913C71.5577 45.1183 71.777 45.3376 71.777 45.604C71.777 45.8703 71.5577 46.0897 71.2913 46.0897H70.2102V51.3447H71.2913C71.5577 51.3447 71.777 51.5641 71.777 51.8304C71.7802 52.0999 71.5608 52.3193 71.2945 52.3193Z" fill="black"/>
<path d="M60.2391 49.891L60.2454 48.086L60.5337 48.1173C60.6246 48.2709 61.621 50.3861 61.7056 50.5333C61.7934 50.6806 61.8404 50.6649 61.8404 50.6649H62.5705C62.8494 50.6649 62.8525 50.4675 62.8024 50.4331C62.7241 50.3735 62.6551 50.3077 62.5423 50.1542C62.4295 50.0006 61.5928 48.3461 61.5333 48.249C61.4738 48.1518 61.4581 48.1173 61.4581 48.0515C61.4581 47.9857 61.4988 47.898 61.6242 47.8447C62.0723 47.6567 62.4483 47.2744 62.4483 46.6602C62.4483 45.8518 61.9939 45.388 60.6151 45.388C60.2705 45.388 59.6594 45.3723 59.4463 45.3723C59.2332 45.3723 59.0484 45.5165 59.1925 45.6387C59.3398 45.7577 59.3523 45.8486 59.3523 46.0241V49.8878C59.3523 50.3015 59.2332 50.314 59.1267 50.4205C59.0233 50.5271 59.0484 50.6869 59.2207 50.6744C59.3899 50.6618 59.5905 50.6618 59.7659 50.6618C59.9602 50.6618 60.1608 50.6618 60.3613 50.6744C60.5587 50.6869 60.5932 50.4989 60.4741 50.3955C60.3551 50.2921 60.2391 50.3046 60.2391 49.891ZM60.2548 46.1087C60.2548 45.67 60.5525 45.6575 60.8188 45.6951C61.0821 45.7358 61.5239 45.8706 61.5239 46.7323C61.5239 47.5972 60.9128 47.757 60.634 47.757C60.3551 47.757 60.2611 47.6348 60.2611 47.5032L60.2548 46.7198V46.1087Z" fill="black"/>
<path d="M44.6746 50.3827C44.5555 50.4893 44.5837 50.6491 44.7811 50.6334C44.9754 50.6209 45.0506 50.6177 45.2449 50.6177L47.2723 50.6146C47.4321 50.624 47.7361 50.7681 47.7361 50.4516V49.4708C47.7361 48.9381 47.4697 48.8441 47.3099 49.4834C47.2034 49.9064 47.0718 50.2918 46.42 50.2918H45.9969C45.8246 50.2918 45.7619 50.226 45.7463 50.0788C45.7055 49.7059 45.7055 49.0353 45.7463 48.302C45.7557 48.0889 45.8528 48.0701 46.0628 48.0701C46.2758 48.0701 46.3322 48.0889 46.3949 48.2613C46.4701 48.4618 46.8618 48.8222 46.8618 48.2613V47.5186C46.8618 46.9608 46.5171 47.3588 46.4231 47.5186C46.3291 47.6784 46.279 47.6784 46.0628 47.6784C45.8528 47.6784 45.7839 47.6377 45.7713 47.4246C45.7525 47.0768 45.7306 46.5221 45.7713 45.8703C45.7807 45.7262 45.8246 45.6604 45.9969 45.6604H46.42C47.0718 45.6604 47.0718 46.0991 47.1752 46.5253C47.2817 46.9483 47.6013 46.8418 47.6013 46.5378V45.557C47.6013 45.2374 47.2974 45.3846 47.1376 45.394H45.2449C45.0506 45.394 44.9754 45.394 44.7811 45.3784C44.5837 45.3658 44.5555 45.5256 44.6746 45.6322C44.7968 45.7387 44.8375 45.7513 44.8407 46.1618V49.8531C44.8407 50.2636 44.7968 50.2762 44.6746 50.3827Z" fill="black"/>
<path d="M42.666 45.6633C42.7757 45.5567 42.7725 45.3624 42.619 45.3781C42.4623 45.3938 42.4028 45.3938 42.2523 45.3938C42.0988 45.3938 42.0393 45.3938 41.8888 45.3781C41.7384 45.3656 41.6883 45.5223 41.7666 45.6319C41.845 45.7385 41.9797 45.751 41.917 46.1615L41.1337 48.7154C41.0428 49.0381 40.8391 49.1447 40.7514 48.7122L40.2124 46.1584C40.1278 45.7479 40.1685 45.7322 40.2688 45.6288C40.3691 45.5223 40.3032 45.3624 40.109 45.375C39.9147 45.3906 39.8363 45.3906 39.6389 45.3906C39.4384 45.3906 39.3632 45.3906 39.1595 45.375C38.9589 45.3624 38.9621 45.5191 39.1062 45.6288C39.2504 45.7353 39.2974 45.7479 39.3882 46.1584L40.3189 50.1944C40.4067 50.5297 40.4662 50.7648 40.6855 50.7648C40.9049 50.7648 41.0302 50.5423 41.118 50.207L42.3589 46.1584C42.5156 45.7604 42.5532 45.7698 42.666 45.6633Z" fill="black"/>
<path d="M51.8317 50.9183H51.1768V46.5156H51.8317C52.3362 46.5156 52.7436 46.1051 52.7436 45.6006C52.7436 45.0961 52.3331 44.6856 51.8317 44.6856H51.1768V42.5986H45.6116C44.6527 42.5986 43.8254 43.1689 43.4494 43.9899C43.0733 43.1689 42.2461 42.5986 41.2872 42.5986H35.7251V44.6856H35.0702C34.5656 44.6856 34.1583 45.0961 34.1583 45.6006C34.1583 46.1051 34.5688 46.5156 35.0702 46.5156H35.7251V50.9183H35.0702C34.5656 50.9183 34.1583 51.3288 34.1583 51.8333C34.1583 52.3347 34.5688 52.7452 35.0702 52.7452H35.7251V55.0045H42.2868C42.5281 55.3994 42.9574 55.6657 43.4494 55.6657C43.9413 55.6657 44.3738 55.3994 44.6119 55.0045H51.1737V52.7452H51.8286C52.3331 52.7452 52.7405 52.3347 52.7405 51.8333C52.7467 51.3288 52.3362 50.9183 51.8317 50.9183ZM48.8015 43.1094L49.5818 43.9116V53.3845L48.8015 52.6888V43.1094ZM43.6625 44.977C43.6625 43.9022 44.5367 43.0279 45.6116 43.0279H48.3754V52.5697L45.6116 52.5635C44.8376 52.5635 44.2923 52.6982 43.8818 53.0053C43.8097 52.9802 43.7408 52.9614 43.6656 52.952V44.977H43.6625ZM38.5265 43.0279H41.2872C42.362 43.0279 43.2363 43.9022 43.2363 44.977V52.952C43.1611 52.9646 43.089 52.9834 43.0201 53.0053C42.6096 52.6982 42.0643 52.5635 41.2903 52.5635L38.5296 52.5697V43.0279H38.5265ZM38.1003 52.6888L37.3201 53.3845V43.9116L38.0972 43.1094L38.1003 52.6888ZM36.1512 54.5784V52.319H35.067C34.8007 52.319 34.5813 52.1028 34.5813 51.8333C34.5813 51.5638 34.8007 51.3476 35.067 51.3476H36.1512V46.0895H35.067C34.8007 46.0895 34.5813 45.8701 34.5813 45.6037C34.5813 45.3374 34.8007 45.118 35.067 45.118H36.1512V43.0311H37.5802L36.8939 43.7393V54.077H42.1082C42.0957 54.149 42.0863 54.2243 42.0863 54.2995C42.0863 54.3966 42.0957 54.4906 42.1145 54.5784H36.1512ZM42.2555 53.6477H37.6679L38.3949 52.999L41.2872 52.9928C41.8857 52.9928 42.2931 53.0836 42.5908 53.2403C42.456 53.3531 42.3401 53.491 42.2555 53.6477ZM43.4494 55.2051C42.948 55.2051 42.5406 54.7977 42.5406 54.2963C42.5406 53.795 42.948 53.3876 43.4494 53.3876C43.9508 53.3876 44.3581 53.795 44.3581 54.2963C44.3581 54.7977 43.9508 55.2051 43.4494 55.2051ZM44.308 53.2434C44.6088 53.0836 45.0162 52.9959 45.6116 52.9959L48.507 53.0022L49.2371 53.6477H44.6464C44.5587 53.491 44.4459 53.3531 44.308 53.2434ZM51.8317 52.319H50.7475V54.5784H44.7874C44.8062 54.4875 44.8156 54.3935 44.8156 54.2995C44.8156 54.2243 44.8062 54.149 44.7937 54.077H50.0111V43.7393L49.3217 43.0311H50.7506V45.118H51.8349C52.1044 45.118 52.3206 45.3374 52.3206 45.6037C52.3206 45.8701 52.1012 46.0895 51.8349 46.0895H50.7506V51.3445H51.8349C52.1044 51.3445 52.3206 51.5638 52.3206 51.8302C52.3206 52.0997 52.1012 52.319 51.8317 52.319Z" fill="black"/>
</g>
<defs>
<clipPath id="clip0_18605_3080">
<rect width="220" height="93.4687" fill="white" transform="translate(30 28.2656)"/>
</clipPath>
</defs>
</svg>
