<?xml version="1.0"?>
<svg xmlns="http://www.w3.org/2000/svg" width="320" height="160" viewBox="0 0 320 160" fill="none">
<path d="M137.381 55.2758C125.025 55.9401 115.459 66.5023 116.123 78.9246C116.788 91.2805 127.35 100.846 139.772 100.182C141.566 100.116 143.293 99.7835 144.954 99.3185L146.615 102.507C147.279 103.836 148.873 104.301 150.202 103.636C151.53 102.972 151.995 101.378 151.331 100.049L149.803 97.1927C156.845 93.0741 161.428 85.2354 160.963 76.5332C160.432 64.1773 149.803 54.6115 137.381 55.2758ZM147.412 92.4762L145.485 88.8226C144.821 87.494 143.227 87.029 141.898 87.6933C140.569 88.3576 140.104 89.9519 140.769 91.2805L142.429 94.4691C141.499 94.6684 140.503 94.8013 139.507 94.8677C130.074 95.3327 121.969 88.0919 121.438 78.5925C120.973 69.1595 128.214 61.0551 137.713 60.5237C147.146 60.0587 155.25 67.2995 155.782 76.7989C156.114 83.3754 152.66 89.2876 147.412 92.4762Z" fill="#00A1DF"/>
<path d="M102.837 100.116C101.376 100.116 100.18 98.92 100.18 97.4585V57.9995C100.18 56.538 101.376 55.3423 102.837 55.3423C104.299 55.3423 105.495 56.538 105.495 57.9995V97.4585C105.495 98.92 104.299 100.116 102.837 100.116Z" fill="#00A1DF"/>
<path d="M229.054 100.116C227.592 100.116 226.396 98.92 226.396 97.4585V57.9995C226.396 56.538 227.592 55.3423 229.054 55.3423C230.515 55.3423 231.711 56.538 231.711 57.9995V97.4585C231.711 98.92 230.515 100.116 229.054 100.116Z" fill="#005487"/>
<path d="M191.189 100.116C190.193 100.116 189.263 99.5843 188.864 98.7207L168.205 59.2617C167.54 57.9331 168.005 56.3388 169.334 55.6745C170.662 55.0102 172.257 55.4752 172.921 56.8038L191.256 91.8121L209.922 56.8038C210.586 55.5416 212.247 55.0102 213.509 55.7409C214.772 56.4052 215.303 58.0659 214.572 59.3281L193.514 98.7872C193.049 99.5843 192.119 100.116 191.189 100.116Z" fill="#005487"/>
<path d="M275.421 91.1476H262.667C261.205 91.1476 260.01 89.9519 260.01 88.4904C260.01 87.029 261.205 85.8333 262.667 85.8333H275.488C276.949 85.8333 278.145 87.029 278.145 88.4904C278.145 89.9519 276.949 91.1476 275.421 91.1476Z" fill="#005487"/>
<path d="M289.836 100.116C288.906 100.116 287.976 99.5842 287.511 98.7206L269.177 63.7123L250.51 98.7206C249.846 99.9828 248.185 100.514 246.923 99.7835C245.661 99.1192 245.129 97.4584 245.86 96.1963L266.918 56.7372C267.383 55.8736 268.313 55.2758 269.243 55.3422C270.239 55.3422 271.103 55.8736 271.568 56.7372L292.228 96.1963C292.892 97.5249 292.427 99.1192 291.098 99.7835C290.7 99.9828 290.235 100.116 289.836 100.116Z" fill="#005487"/>
<path d="M290.235 61.9188H289.305V56.2059H287.246V55.3423H292.361V56.1394H290.235V61.9188Z" fill="#005487"/>
<path d="M296.679 60.3909L298.605 55.3423H300V61.8524H299.07V56.4052L296.878 61.8524H296.28L294.088 56.4052V61.8524H293.225V55.3423H294.62L296.679 60.3909Z" fill="#005487"/>
<path d="M84.7683 92.7419H71.7482C70.8182 94.4027 69.7553 95.9306 68.626 97.2591H84.8348C86.0969 97.2591 87.0934 96.2627 87.0934 95.0005C87.0269 93.7384 86.0305 92.7419 84.7683 92.7419Z" fill="#005487"/>
<path d="M84.7686 84.1062H74.8041C74.472 85.7005 74.0734 87.162 73.542 88.6234H84.7021C85.9643 88.6234 86.9607 87.627 86.9607 86.3648C86.9607 85.1026 86.0307 84.1062 84.7686 84.1062Z" fill="#005487"/>
<path d="M84.7684 75.4705H75.4019C75.4683 76.2012 75.4683 76.8655 75.4683 77.5962C75.4683 78.3934 75.4683 79.1905 75.4019 79.9877H84.7684C86.0306 79.9877 87.027 78.9912 87.027 77.7291C87.027 76.4669 86.0306 75.4705 84.7684 75.4705Z" fill="#005487"/>
<path d="M84.7685 66.8345H73.6748C74.2062 68.2959 74.6048 69.8238 74.8705 71.3517H84.7685C86.0307 71.3517 87.0271 70.3552 87.0271 69.0931C87.0271 67.8973 86.0307 66.8345 84.7685 66.8345Z" fill="#005487"/>
<path d="M84.7687 58.1987H68.8257C69.955 59.5273 71.0179 61.0552 71.8814 62.7159H84.7687C86.0309 62.7159 87.0274 61.7195 87.0274 60.4573C87.0274 59.1952 86.0309 58.1987 84.7687 58.1987Z" fill="#005487"/>
<path d="M41.6559 95.0005C41.6559 93.7384 42.6524 92.7419 43.9145 92.7419H35.013C33.7508 92.7419 32.7544 93.7384 32.7544 95.0005C32.7544 96.2627 33.7508 97.2591 35.013 97.2591H43.9145C42.7188 97.2591 41.6559 96.1963 41.6559 95.0005Z" fill="#00A1DF"/>
<path d="M71.7483 92.7419H43.9144C42.6522 92.7419 41.6558 93.7384 41.6558 95.0005C41.6558 96.2627 42.6522 97.2591 43.9144 97.2591H68.5597C69.7554 95.8641 70.8183 94.4027 71.7483 92.7419Z" fill="#7FA9C3"/>
<path d="M35.3449 86.8298C35.0128 85.3684 36.1421 84.1062 37.5371 84.1062H28.6355C27.3734 84.1062 26.377 85.1026 26.377 86.3648C26.377 87.627 27.3734 88.6234 28.6355 88.6234H37.6035C36.5407 88.6234 35.5442 87.8927 35.3449 86.8298Z" fill="#00A1DF"/>
<path d="M74.8706 84.1062H37.5373C36.1423 84.1062 35.013 85.3684 35.3451 86.8298C35.5444 87.8927 36.5409 88.6234 37.6037 88.6234H73.542C74.1399 87.162 74.5385 85.6341 74.8706 84.1062Z" fill="#7FA9C3"/>
<path d="M28.968 78.1941C28.6358 76.7326 29.7651 75.4705 31.1601 75.4705H22.2586C20.9964 75.4705 20 76.4669 20 77.7291C20 78.9912 20.9964 79.9877 22.2586 79.9877H31.2266C30.1637 79.9877 29.2337 79.2569 28.968 78.1941Z" fill="#00A1DF"/>
<path d="M28.9677 78.1941C29.167 79.2569 30.1634 79.9877 31.2263 79.9877H75.3354C75.4019 79.1905 75.4019 78.3934 75.4019 77.5962C75.4019 76.8655 75.4019 76.1348 75.3354 75.4705H31.2263C29.8313 75.4705 28.702 76.7326 28.9677 78.1941Z" fill="#7FA9C3"/>
<path d="M32.09 69.0931C32.09 67.8309 33.0865 66.8345 34.3486 66.8345H25.4471C24.1849 66.8345 23.1885 67.8309 23.1885 69.0931C23.1885 70.3552 24.1849 71.3517 25.4471 71.3517H34.3486C33.0865 71.3517 32.09 70.3552 32.09 69.0931Z" fill="#00A1DF"/>
<path d="M73.6747 66.8345H34.3484C33.0863 66.8345 32.0898 67.8309 32.0898 69.0931C32.0898 70.3552 33.0863 71.3517 34.3484 71.3517H74.8704C74.6047 69.8238 74.2061 68.2959 73.6747 66.8345Z" fill="#7FA9C3"/>
<path d="M48.4982 60.9887C48.1661 59.5273 49.2954 58.2651 50.6904 58.2651H41.7889C40.5267 58.2651 39.5303 59.2616 39.5303 60.5237C39.5303 61.7859 40.5267 62.7823 41.7889 62.7823H50.7568C49.7604 62.7823 48.764 62.0516 48.4982 60.9887Z" fill="#00A1DF"/>
<path d="M68.8253 58.1987H50.7565C49.3615 58.1987 48.2322 59.4609 48.5644 60.9223C48.7637 61.9852 49.7601 62.7159 50.823 62.7159H71.8811C71.0175 61.1216 69.9546 59.5937 68.8253 58.1987Z" fill="#7FA9C3"/>
</svg>
