<?xml version="1.0"?>
<svg xmlns="http://www.w3.org/2000/svg" width="320" height="160" viewBox="0 0 320 160" fill="none">
<path d="M126.772 97.8486H132.468V61.9258H126.475V97.8486H126.772ZM138.692 97.8486H144.387V61.9258H138.396V97.8486H138.692ZM234.047 108.785C237.746 109.406 241.054 107.899 243.247 105.838C246.324 102.924 248.289 99.1268 251.566 90.252L257.851 73.4858L257.983 73.1263H251.958L251.893 73.2884L246.228 89.9226L240.202 73.2884L240.135 73.1263H233.556L233.685 73.4858L243.084 97.0287C242.33 99.1268 241.119 100.892 239.94 102.073C238.433 103.513 236.338 104.167 234.046 103.777V108.785" fill="#00498F"/>
<path d="M221.276 72.5038C213.875 72.5038 208.799 77.8418 208.799 85.4709C208.799 93.2311 213.811 98.4711 221.276 98.4711C228.74 98.4711 233.72 93.2311 233.72 85.4709C233.72 77.8418 228.644 72.5038 221.276 72.5038ZM221.243 93.6591C217.511 93.6591 214.728 90.414 214.728 85.4385C214.728 80.4614 217.51 77.2208 221.243 77.2208C225.041 77.2208 227.792 80.4614 227.792 85.4385C227.792 90.414 225.009 93.6591 221.243 93.6591ZM110.104 72.4375C102.506 72.4375 97.6282 77.6783 97.6282 85.406C97.6282 93.1662 102.506 98.4078 110.104 98.4078C117.701 98.4078 122.548 93.1662 122.548 85.406C122.548 77.6783 117.701 72.4375 110.104 72.4375ZM110.07 93.592C106.336 93.592 103.554 90.3175 103.554 85.3736C103.554 80.3951 106.336 77.1537 110.07 77.1537C113.87 77.1537 116.619 80.3951 116.619 85.3736C116.619 90.3175 113.835 93.592 110.07 93.592ZM167.538 79.0529H179.295V83.5725H167.538V79.0529ZM93.5654 87.5343C94.8104 91.4623 95.4653 95.3932 95.9258 97.7506L89.5394 97.783C89.1785 95.7535 88.8182 92.9364 87.7059 89.5307C86.4284 85.4694 84.8239 83.6026 81.0256 83.6026H78.1106V97.7499H72.0845V63.3351C73.3619 63.3351 74.8669 63.2363 76.4729 63.2363H81.3188C86.1971 63.2363 89.4068 64.2507 91.6346 66.1846C93.4998 67.7868 94.515 70.2112 94.515 72.9952C94.515 77.5471 91.8637 80.166 88.9162 81.3138C91.0784 82.3267 92.453 84.0962 93.5654 87.5343ZM81.9413 68.1817H79.9457C79.0933 68.1817 78.5356 68.248 78.1106 68.248V79.0521H81.6142C85.7404 79.0521 88.556 76.9231 88.556 73.5506C88.5567 70.0477 86.2634 68.2156 81.9413 68.1817ZM205.033 87.5343C206.277 91.4623 206.931 95.3932 207.391 97.7506L201.005 97.783C200.645 95.7535 200.284 92.9364 199.171 89.5307C197.893 85.4694 196.289 83.6026 192.492 83.6026H189.577V97.7499H183.551V63.3351C184.828 63.3351 186.334 63.2363 187.939 63.2363H192.787C197.665 63.2363 200.873 64.2507 203.101 66.1846C204.969 67.7868 205.983 70.2112 205.983 72.9952C205.983 77.5471 203.33 80.166 200.384 81.3138C202.546 82.3267 203.92 84.0962 205.033 87.5343ZM193.407 68.1817H191.411C190.56 68.1817 190.003 68.248 189.578 68.248V79.0521H193.082C197.208 79.0521 200.023 76.9231 200.023 73.5506C200.023 70.0477 197.731 68.2156 193.407 68.1817ZM149.758 92.2174C151.133 93.0698 153.654 93.8875 155.85 93.8875C158.797 93.8875 159.975 92.9371 159.975 91.1352C159.975 89.3024 159.025 88.5171 155.883 87.3708C151.265 85.7324 149.235 83.014 149.235 80.1321C149.235 75.9758 152.674 72.5354 158.208 72.5354C160.827 72.5354 163.119 73.32 164.528 74.1392L163.349 78.135C162.008 77.514 160.436 76.9563 158.209 76.9887C155.916 77.0218 154.999 78.0694 154.999 79.542C154.999 81.2467 156.735 82.2287 158.961 82.9816C163.382 84.4542 165.74 86.9435 165.74 90.677C165.709 95.0963 162.008 98.3385 155.784 98.3385C152.969 98.3385 150.283 97.7499 148.582 96.4732L149.758 92.2174ZM277.238 96.9329C275.994 97.5245 273.406 98.2751 270.261 98.2751C263.092 98.2096 257.755 93.2981 257.755 85.6992C257.755 78.2993 262.566 72.5694 271.215 72.5694C273.668 72.5694 275.961 73.2235 277.303 73.846L276.254 78.2005C275.208 77.6775 273.668 77.3489 271.343 77.3489C266.268 77.3489 263.878 80.6905 263.911 85.4385C263.911 90.7433 266.825 93.6893 271.311 93.6893C273.604 93.6893 275.208 93.1662 276.42 92.6432L277.238 96.9329ZM284.344 86.8478C284.508 91.9197 287.554 93.7239 291.744 93.7239C294.725 93.7239 296.755 93.2311 298.524 92.5452L299.406 96.6729C297.508 97.4891 294.66 98.4078 290.96 98.4078C283.166 98.4078 278.516 93.2665 278.516 85.8002C278.516 78.7906 282.739 72.604 290.371 72.604C298.362 72.604 300.783 79.3491 300.783 84.3577C300.783 85.44 300.783 86.2584 300.652 86.8146L284.344 86.8478ZM295.183 82.6221C295.217 80.166 294.493 76.8583 290.008 76.8583C285.884 76.8583 284.673 79.9038 284.375 82.6221H295.183Z" fill="#00498F"/>
<path d="M11.9961 52.3657C11.9961 50.2374 13.7325 48.4995 15.8607 48.4995H45.6271C47.7885 48.4995 49.5234 50.2374 49.5234 52.3657V108.425C49.5234 110.557 47.7878 112.289 45.6271 112.289H15.8615C13.7332 112.289 11.9968 110.556 11.9968 108.425V52.3657" fill="white"/>
<path d="M13.6016 58.9775V52.3651C13.6016 51.1201 14.6182 50.105 15.8617 50.105H45.6281C46.9055 50.105 47.9191 51.1201 47.9191 52.3651V58.9775H13.6016ZM13.6016 60.5835H47.9191V100.207H13.6016V60.5835Z" fill="#00498F"/>
<path d="M11.9964 52.3655C11.9964 50.2372 13.7328 48.4993 15.861 48.4993H45.6274C47.7888 48.4993 49.5237 50.2372 49.5237 52.3655V108.425C49.5237 110.557 47.7881 112.289 45.6274 112.289H15.8618C13.7335 112.289 11.9971 110.556 11.9971 108.425V52.3655H11.9964ZM51.4884 52.3655C51.4884 49.1226 48.8688 46.5029 45.6282 46.5029H15.8618C12.6204 46.5029 10 49.1233 10 52.3655V108.425C10 111.668 12.6204 114.284 15.8618 114.284H45.6282C48.8688 114.284 51.4884 111.667 51.4884 108.425V52.3655Z" fill="#00498F"/>
<path d="M13.6016 101.81V108.425C13.6016 109.67 14.6182 110.686 15.8617 110.686H45.6281C46.9055 110.686 47.9191 109.67 47.9191 108.425V101.81H13.6016Z" fill="#00498F"/>
<path d="M28.3048 93.8872V85.0779C29.1564 85.0448 29.9726 85.0116 30.7925 84.9476C30.4986 84.2595 30.2017 83.5714 29.8422 82.9158C29.3493 82.9821 28.8278 82.9821 28.304 83.0137V81.1809C27.157 81.4416 25.9135 81.6391 24.6368 81.7702V93.8872C24.6368 96.5724 23.3926 97.2936 22.6382 97.7835H30.3012C29.5822 97.2929 28.3048 96.5724 28.3048 93.8872ZM46.1192 97.7503C45.496 97.1602 44.7092 96.2446 44.3188 94.4419C43.5953 91.1349 42.0895 86.3885 38.9145 82.8502C42.0247 81.1477 43.9246 78.4633 43.9246 75.1571C43.9563 72.7974 42.7444 70.3082 40.583 68.8356C39.6674 68.2485 38.5866 67.8212 37.3092 67.5566C37.7682 68.5416 38.0621 69.5884 38.1292 70.6368C39.4722 71.6836 40.1911 73.288 40.1911 75.2204C40.1911 77.678 38.9454 80.5584 34.5909 82.0325C34.9518 82.7198 35.3106 83.441 35.606 84.1284C35.8351 84.0628 36.0657 83.9957 36.2948 83.9324C38.3229 86.2898 39.9613 89.9901 40.4519 93.4282C40.8129 95.9167 39.9296 97.161 39.3395 97.7503H46.1192Z" fill="white"/>
<path d="M38.489 93.7878C37.8341 93.1985 37.048 92.2821 36.6878 90.4809C35.9658 87.1732 34.5271 82.5232 31.6452 79.2178C31.7756 79.1514 31.8743 79.1198 32.0062 79.0527C35.28 77.3849 37.2786 74.5995 37.2786 71.1945C37.3103 68.8033 36.0985 66.3487 33.937 64.8746C32.2346 63.729 29.942 63.2686 27.0284 63.2686H15.9922C16.7458 63.7607 17.9893 64.4819 17.9893 67.1664V89.8923C17.9893 92.6121 16.7451 93.298 15.9922 93.7886H23.6544C22.9332 93.298 21.6573 92.6121 21.6573 89.8923V81.0838C24.3425 81.0838 26.8649 80.7552 28.9924 80.1975C30.9255 82.5232 32.3664 86.1271 32.8239 89.4333C33.151 91.9196 32.2994 93.1992 31.71 93.7878H38.489ZM21.6573 79.0527V65.2996H26.8649C28.7641 65.3335 30.1711 65.7254 31.2865 66.5122C32.7568 67.5575 33.5436 69.2283 33.5436 71.227C33.5436 74.5987 31.2194 78.8907 21.6573 79.0527Z" fill="white"/>
<path d="M28.3047 77.0867V69.3265H32.4309C32.1362 68.4749 31.6117 67.7869 30.8919 67.2631H22.6389C23.3932 67.7537 24.6375 68.4425 24.6375 71.1601V78.0054C26.0129 77.808 27.2571 77.514 28.3047 77.0867ZM35.8034 106.265C35.8034 107.378 36.4583 108.227 37.6031 108.227C38.423 108.227 39.1744 107.996 39.503 107.605L39.3055 108.886C39.0116 109.012 38.4878 109.18 37.637 109.18C35.8034 109.18 34.526 108.097 34.526 106.264C34.526 105.283 34.9194 104.529 35.5072 104.037C36.0317 103.581 36.7515 103.315 37.637 103.315C38.4878 103.315 39.0124 103.479 39.3055 103.641V104.856C38.9453 104.463 38.423 104.265 37.6031 104.265C36.4583 104.266 35.8034 105.118 35.8034 106.265ZM20.9696 107.641C20.7073 107.115 20.4782 106.69 20.084 106.527C20.9356 106.362 21.3614 105.837 21.3946 105.117C21.3946 104.364 21.0675 103.807 20.4782 103.581C20.1172 103.447 19.6273 103.447 18.9076 103.447H16.0574C16.3211 103.612 16.4832 104.167 16.4832 104.692V107.835C16.4832 108.294 16.3211 108.885 16.0574 109.078H18.0876C17.8276 108.885 17.6626 108.293 17.6626 107.835V106.821H18.5127C18.9724 106.821 19.2332 107.016 19.4299 107.341C19.7253 107.834 19.9559 108.524 20.3146 109.044L21.9839 109.077C21.4617 108.687 21.2326 108.194 20.9696 107.641ZM20.1511 105.148C20.1511 105.706 19.6921 105.937 18.9724 105.937H17.6626V104.365H18.9724C19.6914 104.365 20.1511 104.562 20.1511 105.148ZM24.1446 107.737C23.8191 107.443 23.654 106.953 23.654 106.265C23.654 105.577 23.8191 105.087 24.1446 104.758C24.4385 104.464 24.8327 104.3 25.3572 104.3C25.8478 104.3 26.242 104.464 26.5374 104.758C26.8645 105.088 27.028 105.577 27.028 106.265C27.028 106.954 26.8645 107.443 26.5374 107.737C26.2412 108.034 25.8471 108.227 25.3572 108.227C24.8327 108.227 24.4385 108.033 24.1446 107.737ZM25.3248 109.21C26.1101 109.21 26.7658 108.982 27.2571 108.554C27.8442 108.065 28.2723 107.314 28.2723 106.265C28.2723 105.217 27.8442 104.464 27.2571 103.937C26.7658 103.545 26.1101 103.316 25.3248 103.316C24.5704 103.316 23.9163 103.546 23.4249 103.937C22.8356 104.464 22.4098 105.217 22.4098 106.265C22.4098 107.314 22.8356 108.065 23.4249 108.554C23.9163 108.981 24.5697 109.21 25.3248 109.21ZM32.6592 103.447C32.7918 103.545 32.8567 103.642 32.8235 103.777C32.8235 103.906 32.7564 104.102 32.626 104.299L31.5144 105.904L30.3991 104.266C30.2687 104.068 30.1383 103.873 30.1707 103.709C30.2024 103.612 30.237 103.513 30.3674 103.447H28.108C28.5021 103.612 28.6951 103.906 28.9913 104.331L30.8241 106.92V107.836C30.8241 108.295 30.6621 108.886 30.3991 109.045H32.4309C32.1686 108.886 32.0058 108.295 32.0058 107.836V106.92L33.6751 104.562C33.9366 104.235 34.2984 103.642 34.6887 103.447H32.6592ZM43.5327 108.161H42.0895V106.624H44.2516L44.382 105.772H42.0895V104.365H43.3661C44.0866 104.365 44.6774 104.398 44.9706 104.692V103.447H40.4842C40.7465 103.642 40.9123 104.235 40.9123 104.692V107.835C40.9123 108.326 40.7465 108.885 40.4842 109.078H45.0045L45.2005 107.702C44.8726 108.131 44.2516 108.161 43.5327 108.161ZM40.6832 55.7377C40.812 55.9337 41.1082 56.1635 41.3034 56.2615C41.8611 56.5562 42.3517 56.6534 42.8755 56.6534C43.694 56.6534 44.1868 56.2947 44.1868 55.7694C44.1868 55.1476 43.5636 55.0496 42.6147 54.917C41.4037 54.755 40.7472 54.198 40.7472 53.2168C40.7804 52.2333 41.6976 51.4812 43.0413 51.4812C43.9562 51.4812 44.5787 51.6764 44.9714 51.8731V53.1497C44.8417 52.9199 44.5471 52.7563 44.2516 52.626C43.8582 52.4948 43.4664 52.43 43.0413 52.43C42.3834 52.43 41.9922 52.6923 41.9922 53.0178C41.9922 53.5755 42.5153 53.6411 43.66 53.8695C44.8071 54.1016 45.4951 54.5914 45.4635 55.6066C45.4303 56.7845 44.5116 57.5713 42.8755 57.5713C42.1543 57.5713 41.2379 57.4394 40.6832 57.1455V55.7377ZM21.1972 55.9977C20.9032 55.4415 20.6749 55.0165 20.2498 54.8198C21.1663 54.6231 21.6237 54.1008 21.6237 53.314C21.6237 52.5596 21.2966 51.971 20.6756 51.7419C20.2815 51.5784 19.7909 51.5784 19.038 51.5784H16.0234C16.3211 51.7743 16.4832 52.3644 16.4832 52.8882V56.1937C16.4832 56.6865 16.3211 57.309 16.0234 57.4726H18.1864C17.8925 57.309 17.7267 56.6865 17.7267 56.1937V55.1461H18.6453C19.1051 55.1461 19.3651 55.3097 19.5625 55.6714C19.8903 56.1929 20.1179 56.9149 20.5106 57.4726H22.2477C21.7224 57.1131 21.4617 56.5554 21.1972 55.9977ZM20.3463 53.3788C20.3463 53.9697 19.8557 54.198 19.1043 54.198H17.7259V52.5272H19.1043C19.8557 52.5272 20.3463 52.7563 20.3463 53.3788ZM24.5388 56.0972C24.1778 55.7686 24.0158 55.2463 24.0158 54.5266C24.0158 53.8386 24.1778 53.3148 24.5388 52.953C24.8327 52.6591 25.2585 52.4624 25.7823 52.4624C26.3068 52.4624 26.7319 52.6591 27.028 52.953C27.3868 53.314 27.5842 53.8386 27.5842 54.5266C27.5842 55.2463 27.3868 55.7686 27.028 56.0972C26.7319 56.3911 26.3068 56.5878 25.7823 56.5878C25.2585 56.5878 24.8327 56.3911 24.5388 56.0972ZM25.7823 57.6361C26.6022 57.6361 27.2895 57.4063 27.8126 56.9488C28.4351 56.4235 28.8609 55.639 28.8609 54.5266C28.8609 53.4452 28.4351 52.6267 27.8126 52.1044C27.2895 51.6771 26.6022 51.4473 25.7823 51.4473C24.9646 51.4473 24.2758 51.6771 23.752 52.1044C23.131 52.6267 22.7029 53.4452 22.7029 54.5266C22.7029 55.6397 23.131 56.4243 23.752 56.9488C24.2765 57.4063 24.9962 57.6361 25.7823 57.6361ZM34.2984 55.9676C33.969 56.3911 33.2825 56.5238 32.5273 56.5238H31.3825V52.889C31.3825 52.3984 31.5461 51.7751 31.8084 51.5792H29.6793C29.9732 51.7751 30.1383 52.3976 30.1383 52.889V56.1944C30.1383 56.7197 29.9732 57.2759 29.6793 57.4733H34.1009L34.2984 55.9676ZM39.6356 55.9676C39.3055 56.3911 38.6197 56.5554 37.8653 56.5238H36.6866V52.889C36.6866 52.3984 36.8502 51.7751 37.1456 51.5792H35.0166C35.3105 51.7751 35.474 52.3976 35.474 52.889V56.1944C35.474 56.7197 35.3105 57.3098 35.0166 57.5042H39.4065L39.6356 55.9676Z" fill="white"/>
<path d="M302.99 72.3737C302.99 70.5544 304.361 69.1836 306.119 69.1836C307.857 69.1836 309.228 70.5552 309.228 72.3737C309.228 74.2224 307.857 75.5842 306.119 75.5842C304.362 75.5842 302.99 74.2224 302.99 72.3737ZM306.12 76.2248C308.212 76.2248 310 74.5984 310 72.3737C310 70.1686 308.212 68.543 306.12 68.543C304.006 68.543 302.219 70.1686 302.219 72.3737C302.219 74.5977 304.006 76.2248 306.12 76.2248ZM305.306 72.6782H306.078L307.247 74.5984H307.998L306.738 72.648C307.389 72.5674 307.887 72.2215 307.887 71.4286C307.887 70.5544 307.369 70.1686 306.322 70.1686H304.636V74.5977H305.306V72.6782ZM305.306 72.1092V70.7376H306.221C306.689 70.7376 307.186 70.8385 307.186 71.3879C307.186 72.0685 306.678 72.1092 306.109 72.1092H305.306Z" fill="#00498F"/>
</svg>
